<svg xmlns="http://www.w3.org/2000/svg" viewBox="0 0 14.5 21.76"><defs><style>.cls-1{fill:#94d3e7;}</style></defs><title>資產 10</title><g id="圖層_2" data-name="圖層 2"><g id="店家情報_拷貝" data-name="店家情報 拷貝"><path class="cls-1" d="M14.49,6.86A7.29,7.29,0,0,1,14,9.57a35.85,35.85,0,0,1-2.54,5.54C10.31,17.28,9,19.37,7.71,21.43c-.28.43-.63.44-.91,0a79.93,79.93,0,0,1-5.22-9.17A21.6,21.6,0,0,1,.24,8.77a6.44,6.44,0,0,1,.68-5A7.05,7.05,0,0,1,6.38.06a7.25,7.25,0,0,1,8,5.95C14.44,6.35,14.47,6.68,14.49,6.86ZM7.24,10.42A3.17,3.17,0,1,0,4.08,7.24,3.18,3.18,0,0,0,7.24,10.42Z"/></g></g></svg>