<svg xmlns="http://www.w3.org/2000/svg" viewBox="0 0 99.81 123.94"><defs><style>.cls-1{fill:#fbfbfa;stroke:#231815;stroke-miterlimit:10;stroke-width:0.5px;}</style></defs><title>資產 3</title><g id="圖層_2" data-name="圖層 2"><g id="店家情報_拷貝" data-name="店家情報 拷貝"><path class="cls-1" d="M73.05,12.58c-.4.24-.65.74-1,1a13.7,13.7,0,0,1-2.72,2,8.22,8.22,0,0,0-3.93,3.1,12.63,12.63,0,0,1-1.43,1.58c-2.66-.84-4.23,1.25-6.15,2.67l-4.31-2.09c-.07,1.09-.14,1.85-.16,2.6-.11,3.09-.13,6.18-.35,9.26-.15,2-.84,3.81-2.92,4.68v0l-1,.48c0,.28.13.63,0,.83-2.15,3.69-4.24,7.41-6.54,11a17.66,17.66,0,0,1-3.24,3.21c-.2.18-.64.11-1,.13.18,1.43-1.14,1.83-1.91,2.4C32,58.67,28.57,62.5,27.46,68a2.06,2.06,0,0,1-.08.23,2.85,2.85,0,0,1-2.52,1.95A11.47,11.47,0,0,0,21,71.56a8.11,8.11,0,0,1-5.64.91A37.2,37.2,0,0,0,10.29,72a15,15,0,0,1-6.68-1.13,2.79,2.79,0,0,0-3.34.26A146.68,146.68,0,0,0,8.87,94.26,4.65,4.65,0,0,0,10,95.63a2.93,2.93,0,0,1,.13,4.6,4.08,4.08,0,0,0-1.34,4.17l2.66,5.79,3.93,5.37,2,2.45.47.49c.81.66,1.64,1.3,2.43,2,1.14,1,2.25,2,3.48,3L25,121.63l2.12,1.87c.22-.67.46-1.23.6-1.81s.26-1.41.38-2.12c.75-1.79,1.42-3.62,2.26-5.37a4.42,4.42,0,0,0,.25-4,13.7,13.7,0,0,1-.38-10,27.45,27.45,0,0,0,1-3.77,7.36,7.36,0,0,0,.1-2.87,11.58,11.58,0,0,1,.24-6.26c.89-2.84,1.54-5.77,3.18-8.35a33.58,33.58,0,0,0,4.68.84A33.46,33.46,0,0,0,44,79.43l4.05-4.95c1.67-2,2.95-2.26,4.9-.39a4.15,4.15,0,0,0,5.1.89c3-1.4,5.48-.41,7.84,1.5s3.69,2,6.13.35a4.11,4.11,0,0,1,3.22-.68l1.76.27c.36-2-.72-3.19-1.58-4.43A9.18,9.18,0,0,1,74,65.13a16.83,16.83,0,0,1,4.67-9.66,1.05,1.05,0,0,0,.12-.21A23.1,23.1,0,0,1,80,48.9a11,11,0,0,0,.57-6.43A6.13,6.13,0,0,1,82,36.77a10.83,10.83,0,0,0,2.42-5.22,13.87,13.87,0,0,1,7.15-8.73,10.41,10.41,0,0,1,3-1,8.34,8.34,0,0,1,2-.08l2.86-1,.16-3L93.5,14.08l-.36-3.91c.95-.64,1.64-1.2,2.42-1.63a3,3,0,0,0,1.63-3A5.68,5.68,0,0,0,92.53.69,14.2,14.2,0,0,1,89.86.56c-3-.86-5.32.15-7.3,2.39a6.44,6.44,0,0,1-1.63,1L78,5.64C76.85,8.29,75.73,11,73.05,12.58Z"/></g></g></svg>