<svg xmlns="http://www.w3.org/2000/svg"  viewBox="0 0 82.53 79.1"><defs><style>.cls-1{fill:#fbfbfa;stroke:#231815;stroke-miterlimit:10;stroke-width:0.5px;}</style></defs><title>資產 7</title><g id="圖層_2" data-name="圖層 2"><g id="店家情報_拷貝" data-name="店家情報 拷貝"><path class="cls-1" d="M14.44,16.63a16.89,16.89,0,0,1-11,5.51c-.91.09-1.82.28-2.73.42l-.37.76c.49.28,1,.54,1.46.83,2.68,1.68,5.39,3.31,8,5.08,1.25.84,2.79,1.72,3.4,3a6.67,6.67,0,0,1-3,8.58,25.37,25.37,0,0,1-4.8,1.51C4.73,43.89,3.65,45.4,4.32,47l-1,3.47.66.63,1.67,1.58c.21.46.46.91.66,1.37a4.81,4.81,0,0,1,.17.47c.29,1,.46,2,.64,2.77a24.53,24.53,0,0,0,2.47.7A9.08,9.08,0,0,0,11.5,58a3.92,3.92,0,0,1,3.58,1.67A24.26,24.26,0,0,0,17,61.58c1.51,1.6,1.78,3.28.52,5.07a4.12,4.12,0,0,0-.54,4.13,15.44,15.44,0,0,0,1.19,2.12c1.69,1.62,3.48,3.18,3.51,5.68,2.73.83,4.43-.41,6-2.09a10.76,10.76,0,0,1,3.07-2.66c3.08-1.35,3.69-2,3.7-5.4,0-1.31-.13-2.81,1.06-3.6,2.09-1.38,4.33-2.53,6.53-3.74,1-.54,2-.91,3-1.49,1.72-1.06,3.25-2.63,5.11-3.23a16.73,16.73,0,0,0,6.32-4c.47-.43,1-.8,1.48-1.2h0l.48-.48,0,0c1.18-.76,2.28-1.86,3.58-2.2a2.47,2.47,0,0,0,2-1.64l-1.61-2.7c1.38-2.39,1.82-2.69,4.12-2.68a7.44,7.44,0,0,0,3.68-1c2.52-1.33,5.21-2.38,8.22-1.05l3.74-3.1-2.62-1.8-4.06.82c-.22-.27-.36-.38-.41-.52-.54-1.85-.77-3.86-1.66-5.53a7.7,7.7,0,0,1-.81-4.65,6.85,6.85,0,0,0-.38-2.08c-2.27-.25-4.23-.12-5.89-.76s-2.75-.6-3.75.25c-3.23-.71-5.93.09-8.86,1.2l2.2,6.42c-1.63,1-3.4,2.2-5.19,1.67-2.28-.67-4.34-2.1-6.5-3.21h0c-2.8-1.72-3.46-5-5.41-7.33,1.65-3.63,5.72-3.57,8.24-5.82l-1.18-1.49.44-1.68c-2.44.41-3.12-.11-4.4-2a21.47,21.47,0,0,1-2.74-5.43,4.82,4.82,0,0,0-2-2.07C35.93,1.58,34.54.93,33.36.27c-2.39.86-4.75.54-6.93,1.46-1.7.72-3.4,1.25-4.68,2.7A32.83,32.83,0,0,1,18.93,7l-2.51,4.26L14.68,14.4C15.55,15.15,15.05,16,14.44,16.63Zm6.85,2.57A22.28,22.28,0,0,0,24,17.14c2.08-1.85,4.13-3.74,6.21-5.64l.83.65L33.34,14c.34,1.59.66,3.18,1,4.76a2.54,2.54,0,0,0,.51,1.31,2.87,2.87,0,0,1,.61,3.87l3.15,2.83-1.25,5.67,2.85,1.89c-.7,2.65-2.93,1.9-4.52,2.42-1,2.33-.06,4.11,1.81,5.81-2.45,1.74-4.75.55-6.39.78-1.44-1.46-2.59-2.45-3.52-3.61a43.15,43.15,0,0,1-2.47-3.82L23.67,38c-2.27-.89-2.72-2-2-5.12l2-.86c0-.91,0-1.72,0-2.52-.19-2.67-.22-2.71-3-3.17a2,2,0,0,1-1.89-1.59C18.49,23.1,19.9,20.11,21.3,19.21Z"/></g></g></svg>