<svg xmlns="http://www.w3.org/2000/svg" viewBox="0 0 20.54 30.29"><defs><style>.cls-1{fill:#f9f8f7;stroke:#231815;stroke-miterlimit:10;stroke-width:0.5px;}</style></defs><title>資產 6</title><g id="圖層_2" data-name="圖層 2"><g id="店家情報_拷貝" data-name="店家情報 拷貝"><path class="cls-1" d="M1.74,13c2.23.33,2.78.81,3.12,3,.22,1.42.25,2.86.38,4.38l-2.79.84L3.15,25l2.2-2.74L11.75,30h4.56a20.31,20.31,0,0,1-1.21-2.11c-1.12-2.71-.16-4.32,2.72-4.75A13.24,13.24,0,0,0,20,22.43L16.7,20.56l1.37-6.12L14.7,12.11l.85-2.69c-2.31-2-1.81-4.94-2.71-7.36L10.53.33C8.11,2.58,5.77,4.77,3.41,6.95a3.58,3.58,0,0,1-.62.38C.55,8.66,0,10,.37,12.86.8,12.91,1.27,13,1.74,13Z"/></g></g></svg>