<svg xmlns="http://www.w3.org/2000/svg" viewBox="0 0 227.65 432.9"><defs><style>.cls-1{fill:none;}.cls-1,.cls-10,.cls-11,.cls-12,.cls-13,.cls-2,.cls-3,.cls-4,.cls-5,.cls-6,.cls-7,.cls-8,.cls-9{stroke:#231815;stroke-miterlimit:10;stroke-width:0.5px;}.cls-2{fill:#7b7a7a;}.cls-3{fill:#727170;}.cls-4{fill:#f9f8f7;}.cls-5{fill:#fbfbfa;}.cls-6{fill:#7e7d7c;}.cls-7{fill:#757473;}.cls-8{fill:#868484;}.cls-9{fill:#fcfbfb;}.cls-10{fill:#f5f5f5;}.cls-11{fill:#e2e2e2;}.cls-12{fill:#7a7878;}.cls-13{fill:#6d6c6c;}</style></defs><title>資產 1</title><g id="圖層_2" data-name="圖層 2"><g id="店家情報_拷貝" data-name="店家情報 拷貝"><path class="cls-1" d="M39.49,357.48h0c.05-.05.14-.11.15-.16S39.55,357.43,39.49,357.48Z"/><path class="cls-1" d="M177.71,19.32c-.36-1.58-.69-3.17-1-4.76l-2.33-1.83,2.33,1.83C177,16.14,177.35,17.74,177.71,19.32Z"/><path class="cls-2" d="M146.59,26.9c2.33,1.45,4.72,2.8,7.07,4.22a4,4,0,0,1,2.23,2.67c.86,4-1.35,7.21-5.47,7.77a9.36,9.36,0,0,0-2.14.85l.47.46a25.37,25.37,0,0,0,4.8-1.51,6.67,6.67,0,0,0,3-8.58c-.61-1.25-2.15-2.13-3.4-3-2.62-1.76-5.33-3.4-8-5.08-.47-.3-1-.56-1.46-.83l.37-.76c.91-.14,1.81-.33,2.73-.42a16.89,16.89,0,0,0,11-5.51c.61-.66,1.1-1.49.23-2.23l1.74-3.18-.38-.36-2.63,3.32.79,1.37a14.19,14.19,0,0,1-1.11,1.21c-2.94,2.5-6,4.6-10.17,4.39a2.91,2.91,0,0,0-3.14,1.73,3.69,3.69,0,0,0,.6,1.21A21.77,21.77,0,0,0,146.59,26.9Z"/><path class="cls-3" d="M26.65,343.85l-.36.31,3.92,5.37.36-.31Z"/><path class="cls-3" d="M30.57,349.22l-.36.31,2,2.48a3.25,3.25,0,0,1,.33-.34Z"/><path class="cls-3" d="M32.53,351.66a3.25,3.25,0,0,0-.33.34l.5.47.31-.32Z"/><path class="cls-4" d="M192,30.17c2.34,1.57,3.67,1.43,6-.48L196.22,24c1.75-2.58,4.79-1.43,6.88-2.77l-4.18-2.65c-.34,1.83-1.8,2.42-3.71,3.1l.61-3L191,16.55c-2.39,1.66-5.83,2.09-7.94,4.92,1.59,2.29,3.07,4.4,4.51,6.55.12.18,0,.52,0,.79A6.18,6.18,0,0,1,192,30.17Z"/><path class="cls-4" d="M187.55,28.81h0Z"/><path class="cls-4" d="M187.52,28.81l0,0h0Z"/><path class="cls-5" d="M39.36,357.31a.13.13,0,0,0,0,.08l.09.09c.05-.05.14-.1.15-.16s-.09-.11-.13-.17S39.36,357.26,39.36,357.31Z"/><path class="cls-5" d="M39.49,357.48h0l-.09-.09Z"/><path class="cls-6" d="M164.05,26.86c2.74.46,2.77.5,3,3.17.06.8,0,1.61,0,2.52l-2,.86c-.74,3.11-.3,4.23,2,5.12l1.5-2.07A43.15,43.15,0,0,0,171,40.28c.93,1.16,2.08,2.15,3.52,3.61,1.64-.24,3.94,1,6.39-.78-1.88-1.7-2.82-3.48-1.81-5.81,1.59-.52,3.82.23,4.52-2.42L180.74,33,182,27.33l-3.15-2.83a2.87,2.87,0,0,0-.61-3.87,2.54,2.54,0,0,1-.51-1.31c-.36-1.58-.69-3.17-1-4.76l-2.33-1.83-.83-.65c-2.09,1.9-4.13,3.79-6.21,5.64a22.28,22.28,0,0,1-2.66,2.07c-1.4.91-2.81,3.89-2.49,5.49A2,2,0,0,0,164.05,26.86Zm1.71-6.62a3.58,3.58,0,0,0,.62-.38c2.35-2.18,4.7-4.37,7.11-6.62L175.8,15c.9,2.42.41,5.38,2.71,7.36L177.67,25,181,27.36l-1.37,6.12,3.26,1.86a13.24,13.24,0,0,1-2.13.76c-2.88.43-3.84,2-2.72,4.75A20.31,20.31,0,0,0,179.28,43h-4.56l-6.4-7.74L166.12,38l-.71-3.76,2.79-.84c-.12-1.52-.16-3-.38-4.38-.34-2.23-.9-2.71-3.12-3-.47-.07-.94-.11-1.37-.16C162.93,22.88,163.52,21.58,165.76,20.24Z"/><path class="cls-4" d="M164.71,25.94c2.23.33,2.78.81,3.12,3,.22,1.42.25,2.86.38,4.38l-2.79.84.71,3.76,2.2-2.74,6.4,7.74h4.56a20.31,20.31,0,0,1-1.21-2.11c-1.12-2.71-.16-4.32,2.72-4.75a13.24,13.24,0,0,0,2.13-.76l-3.26-1.86L181,27.36,177.67,25l.85-2.69c-2.31-2-1.81-4.94-2.71-7.36l-2.31-1.74c-2.42,2.25-4.76,4.44-7.11,6.62a3.58,3.58,0,0,1-.62.38c-2.24,1.34-2.83,2.64-2.42,5.54C163.77,25.83,164.24,25.87,164.71,25.94Z"/><path class="cls-1" d="M147.3,51.62,149,53.21Z"/><path class="cls-2" d="M101.23,60.91c0-.73,0-1.46,0-2.28h2.41L105,60.11l5.74,2,0,0h0c-.09-1.38-1.12-1.79-2.22-2-.87-.18-1.76-.21-2.73-.32l-1.54-1.91c.46-2.72-.37-6,3.34-7.21-.06-.79-.39-1.7-.11-2.35s1.16-1,1.77-1.49v-.86a16.48,16.48,0,0,0,1.95-2.41,10.22,10.22,0,0,0,1.6-4A7.11,7.11,0,0,1,116,34.11,63.6,63.6,0,0,1,122.92,30a13.17,13.17,0,0,1,2.06-.68c1.83-.65,3.69-1.22,5.46-2,2.13-.94,4.19-2.06,6.26-3.13.69-.36,1.32-.83,2-1.25-.21-.08-.48-.29-.63-.23-2.45,1.07-4.88,2.2-7.33,3.27-1.93.84-3.88,1.63-5.82,2.43-1.42.59-2.91,1-4.26,1.76a45.31,45.31,0,0,0-4.73,3c-2.2,1.55-3.85,3.52-4,6.35a6.69,6.69,0,0,1-2,4.3,13.38,13.38,0,0,0-1.64,2c-1,1.55-1.68,3.27-2.77,4.71a11.26,11.26,0,0,0-2.1,5.35c-.09.57-.65,1.46-1.09,1.52a2.16,2.16,0,0,0-2,2.2V63.9l.45.4C101.95,63.32,101.24,62.07,101.23,60.91Z"/><path class="cls-2" d="M23.52,188a.22.22,0,0,1,.13,0,11.55,11.55,0,0,0,5.75.88c.43,0,.86-.07,1.28-.13l.64-.08,1.93-.3.64-.1-.07-.71c-3.2.16-6.42,1-9.57-.26l6.82-13-.38-.36c-.32.36-.77.66-.94,1.08-1.86,4.57-4.77,8.54-7.2,12.78l.45.44A5.42,5.42,0,0,1,23.52,188Z"/><path class="cls-7" d="M11.11,211.53c.79-2.45,1.45-5,3.19-7l3.86,1.64-1.83-3.28.07-.75.1-1-.63,0c-.35.69-.53,1.62-1.09,2a8.42,8.42,0,0,0-3,4.24c-.87,2.34-1.8,4.66-2.59,7a4.9,4.9,0,0,0,.21,1.92l1,0C9.75,214.51,10.62,213,11.11,211.53Z"/><path class="cls-2" d="M17.7,195.28a2.8,2.8,0,0,1,.53-1.08c1.58-2,3.18-4,4.77-6h0l-.45-.44a31,31,0,0,0-2.37,2.32c-.92,1.1-1.6,2.41-2.58,3.44s-.82,2.94-2.49,3.58c-.21.08-.12.95-.17,1.39l.92-.23v2.81l.63,0C16.9,199.16,17.28,197.21,17.7,195.28Z"/><path class="cls-2" d="M23,188.19l-.45-.44.45.44Z"/><path class="cls-7" d="M5.52,259.26a.52.52,0,0,1,.1-.32,6.55,6.55,0,0,0,.13-4.1c-1.12,1.3-1.73,4.33-1.18,5.37,0,.07.3,0,.45,0h.23Z"/><path class="cls-3" d="M24,338.06l-.62,0,1.84,5.22,1.09.82.36-.31Z"/><path class="cls-8" d="M10.34,216.21l-1,0,.87,6.85L11,223Z"/><path class="cls-2" d="M147.3,51.62l-.66-.63,1-3.47c-.67-1.55.41-3.07,1.08-4.66l-.47-.46a9,9,0,0,0-.91,1.3c-.64,1.37-.46,3-.9,4.28a9.11,9.11,0,0,0-.46,3.77l2.55,1.82.4-.37Z"/><polygon class="cls-9" points="110.71 62.07 110.73 62.1 110.71 62.07 110.71 62.07"/><path class="cls-10" d="M110.71,62.07h0Z"/><path class="cls-10" d="M111.72,62.58l0,0,0,0Z"/><path class="cls-10" d="M110.71,62.07l0,0h0Z"/><path class="cls-11" d="M4.15,265.19l-.68,1.74.77.34.36-2Z"/><path class="cls-11" d="M6,259.82l-.53-.55-.26,1Z"/><path class="cls-5" d="M134.5,64.92l-1.7-1C132.7,65.32,133.68,65,134.5,64.92Z"/><path class="cls-5" d="M129.56,62.29l.84-1-1.09-.6Z"/><path class="cls-2" d="M111.7,62.56h0Z"/><path class="cls-5" d="M139.56,123.95h0Z"/><path class="cls-5" d="M139.22,124l0,0Z"/><path class="cls-5" d="M138.67,124.51h0l0,0Z"/><path class="cls-2" d="M98,389.66l-.46.26-.05.62c-.08,2.65-.26,5.3-.19,7.94a13,13,0,0,1-.6,4.63c-.31.92.59,2.24,1.05,3.73-1.15,2.29-.88,4.95.27,7.72-1.91,2-2.24,5.59-5.85,5.92a10.09,10.09,0,0,0,.78,8.79l.81,2-.57.24-.77-1.76c-.37-.16-.9-.22-1.08-.5-1.09-1.71-2.89-2.22-4.61-2.93-1.41-.58-2.76-1.32-4.41-2.11a14.23,14.23,0,0,0-1.88,2.19,19.54,19.54,0,0,0-1.16,3.25L77,427.52c.13-.81.25-1.67.4-2.53A5.83,5.83,0,0,0,76,420a18.21,18.21,0,0,1-1.82-3.28c.94-2.85,2.93-4.77,1.91-7.62l1.53-1.37c-.23-1-.42-2.12-.73-3.19-.9-3.1-1.88-6.18-2.77-9.28a19.07,19.07,0,0,0-.74-3.3,55.31,55.31,0,0,0-3.27-5A24.39,24.39,0,0,0,69,381.79a25.8,25.8,0,0,0-3.29-4.71,11.29,11.29,0,0,1-1.7-2.21,8.44,8.44,0,0,0-3.92-4.47C57.52,369,55,367.49,52.48,366l0,.66c2.41,1.5,4.8,3,7.24,4.48a7,7,0,0,1,3.43,4,4.79,4.79,0,0,0,2.17,2.81,5.29,5.29,0,0,1,2,2.38c.77,1.94,1.19,4,1.86,6A15.81,15.81,0,0,0,70.47,389c.8,1.39,2.08,2.66,2.41,4.14a100,100,0,0,0,3.35,12.15,12.57,12.57,0,0,1,.38,1.85L75.06,409c1.47,2.06-.07,3.93-.9,5.35-1.41,2.41-.58,4.18.78,5.75a6,6,0,0,1,1.38,5.65,22.18,22.18,0,0,0-.25,2.33l2.62,2.33c1.47-.21,1.82-1.24,2.21-2.37a22.87,22.87,0,0,1,1.37-2.81,34.39,34.39,0,0,0,5.07,2.49,8.3,8.3,0,0,1,4.82,4.06c.63,1,1.39,1.24,2.6.32-.26-1-.26-2.31-.86-3.15-1.7-2.35-1.71-4.82-1-7.7,3.72-.43,4-4.29,6.14-6.43a9.18,9.18,0,0,1-.09-8.35c-1.19-1.72-2.27-3.42-.41-5.07a14.22,14.22,0,0,1-.39-2.6c.11-2.66.36-5.32.48-8,0-.37-.38-.75-.59-1.13h0Z"/><path class="cls-3" d="M51.32,364.89c-.91-2.8-1.24-3.08-4-2.88l-1.06,0a6.53,6.53,0,0,0-2.62-5.12l.23-3.67-.66,0c-.12.71-.21,1.42-.38,2.12s-.37,1.15-.6,1.81l-2.12-1.87-1.23,1.88c-1.23-1.07-2.34-2.06-3.48-3-.8-.68-1.62-1.32-2.43-2l-.31.32L35.75,356l6,4c1-.84,1.75-1.67,3-.48a4.44,4.44,0,0,0,2.54,4.2c1.73,1,3.49,2,5.24,3l0-.66C52.09,365.66,51.47,365.35,51.32,364.89Zm-11.83-7.41h0l-.09-.09a.13.13,0,0,1,0-.08c0-.06.09-.11.15-.16s.14.12.13.17S39.55,357.43,39.49,357.48Z"/><path class="cls-1" d="M109.66,255.51a8.33,8.33,0,0,1,2-.08l.06.69-.06-.69A8.34,8.34,0,0,0,109.66,255.51Z"/><path class="cls-1" d="M131.81,313.46a9.08,9.08,0,0,0,.21,1.18A9.08,9.08,0,0,1,131.81,313.46Z"/><path class="cls-1" d="M92.08,77.21l-.48.47-1.89,2,1.89-2Z"/><path class="cls-1" d="M155.51,93.47l.14-.9-.14.9Z"/><path class="cls-5" d="M130.81,320.88c.56-.95,1-2,1.66-3.41l-.32-2-.13-.82a9.08,9.08,0,0,1-.21-1.18,4.47,4.47,0,0,1,.06-1.46,2.77,2.77,0,0,1,.55-1.14c.72-.89,2.07-1.46,4.2-1.89a21.74,21.74,0,0,0,2.54-2.93,48.33,48.33,0,0,0,2.72-5.42,7.22,7.22,0,0,1,2.19-3.07,7.08,7.08,0,0,0,2.92-4.9,8.44,8.44,0,0,1,.72-2l2.14-5.64a14.08,14.08,0,0,1,1.44-3.54,8.37,8.37,0,0,1,3.06-2l2.52-2.59a4.5,4.5,0,0,1-.35-4.53,2.64,2.64,0,0,0-.09-1.86c-1-2.56-1-4.8,1.59-6.19-.08-4.78,1-8.84,4.73-11.88a2.75,2.75,0,0,0,.77-1.44,32.62,32.62,0,0,0,.81-4.29A17.2,17.2,0,0,1,165.5,241c.74-1.63-.68-2.85-1.65-4.34a5.38,5.38,0,0,0-2,.56,33.22,33.22,0,0,0-4.1,3.8,3.52,3.52,0,0,0-.36,3.92,5.44,5.44,0,0,1-.51,5.8c-3.52,4.45-5,9.83-7,15a25.59,25.59,0,0,0-2,9.23,15.35,15.35,0,0,1-.66,3l-5.67,1.65c-3.14-3.07-7.14-4.91-9.17-9.07-1.91-3.93-2.17-3.81-6.67-3.16-2.23-1.27-4.57-2.59-6.89-3.93a5.1,5.1,0,0,1-2.34-3c-.52-1.6-1.24-3.14-1.89-4.77l-2.88.43a21.13,21.13,0,0,0-4.44,1.12,12,12,0,0,0-6.83,8.09A12.28,12.28,0,0,1,97.81,271a5.09,5.09,0,0,0-1.19,4.8c.83,3.05-.06,5.77-1.16,8.52a5.26,5.26,0,0,0-.52,2.33,5.25,5.25,0,0,1-1.64,4.6c-1.91,1.9-2.49,4.38-3.07,7a8.4,8.4,0,0,0,1.6,7.73c1.71,2.1,1.42,4.77,2.17,7.15a8.24,8.24,0,0,1,.19,1.24c.84.54,1.69,1,2.46,1.59,1.94,1.45,2.12,2.87,1.32,5.07a11.3,11.3,0,0,0-.27,4.24c-.83,2.6-3.22,3.34-5.49,4.18s-4.41,1.47-7,2.32a4.83,4.83,0,0,0-.66,1.3,16.83,16.83,0,0,1-2.89,5.32,16.17,16.17,0,0,0-2.89,7.91,9.54,9.54,0,0,0,1.1,5.66,6.87,6.87,0,0,1,1,4.44,6.4,6.4,0,0,0,1.76,5.59c.81.85,1.68,1.86,1.07,3.56-.63.46-1.5,1-2.31,1.7-2,1.63-2.14,4.34.07,5.5,3.06,1.61,3.85,4.18,4.11,7.2.08.89.08,1.79.12,2.68.14,2.28,1.53,3.43,3.6,4a6.75,6.75,0,0,1,3.49,2,4.46,4.46,0,0,0,2.12.95,10,10,0,0,0,1.3.24l1.32.17.46-.26-.22-2.61c-.68-3.47-1.16-6.94-.07-10.42,1.17-3.19,2.36-6.37,3.51-9.57,1.06-3,2.11-5.93,3.11-8.92s1.81-6.06,2.92-9a9.52,9.52,0,0,1,2.22-3.12,5.78,5.78,0,0,0,1.8-3.6c.11-1,.27-2.1.47-3.13a7.87,7.87,0,0,1,6.32-6.64c.34-1.8,1.91-2.23,3.23-3,1.73-1,3.41-2.08,5.1-3.13a.27.27,0,0,1,.22-.22c.7-.77,1.46-1.5,2.09-2.32A30.07,30.07,0,0,0,130.81,320.88Z"/><path class="cls-5" d="M130.45,27.34c-1.77.78-3.64,1.35-5.46,2a13.17,13.17,0,0,0-2.06.68A63.6,63.6,0,0,0,116,34.11a7.11,7.11,0,0,0-3.24,5.45,10.22,10.22,0,0,1-1.6,4,16.48,16.48,0,0,1-1.95,2.41c1.7-.26,3.36.41,5.12.11,1.45-.24,2.78.71,3.54,2.31l-1,2.32c1.64,1.06,1.64,1.06,5.9,1.2l1.79,2.39,2.73-1.5,2,2.22-1.12,3.22c3.09,2.59,5.61,5.75,9.84,6.76a17.29,17.29,0,0,1,5.52,3c2.07,1.45,2.68,3.77,2.85,6.19.06.8,0,1.61,0,2.48l1.64.77,1.12,2.52a3.43,3.43,0,0,1,2.08,2.8,4.83,4.83,0,0,0,.33,1.16c.9,2.17.91,2.17,0,4.59l1.19,1.84,2.72.4L157.51,88l1.27,1.39,2.45.15,2.89-3.94-1-2.52a11.71,11.71,0,0,0,.9-2.81,5.12,5.12,0,0,0-1.45-4.46A14,14,0,0,1,161,73.93c-2.29-2.39-2.56-4.42-.92-7.1a3.07,3.07,0,0,0-.35-4c-.66-.71-1.46-1.31-2-2.08a3.64,3.64,0,0,0-3-1.34,27.56,27.56,0,0,1-4.66-.78,3.72,3.72,0,0,1-1.22-3.14c0-.22,0-.45,0-.67a4.12,4.12,0,0,0-.27-1.27L146,51.76a9.11,9.11,0,0,1,.46-3.77c.44-1.29.26-2.91.9-4.28a9,9,0,0,1,.91-1.3,9.36,9.36,0,0,1,2.14-.85c4.12-.55,6.33-3.74,5.47-7.77a4,4,0,0,0-2.23-2.67c-2.35-1.41-4.74-2.76-7.07-4.22a21.77,21.77,0,0,1-2.87-2.24,3.69,3.69,0,0,1-.6-1.21l-1.08-.83-3.37.33c-.66.42-1.29.89-2,1.25C134.63,25.28,132.58,26.4,130.45,27.34Z"/><path class="cls-2" d="M51.27,140.51l-3.76,4.18.46.43,2.94-2.82c1.73.32,2.2,1.7,2.8,2.9s1.11,2.69,1.72,4c1.12,2.44,4,4.73,6.85,3.78l-.06-.71A5.59,5.59,0,0,1,56.29,149c-.72-1.45-1.28-3-2.07-4.84l1.08-.62c-.18-2.19-1.62-3.18-3.53-3.92,1.29-3.24,4.25-5.69,4.13-9.57A5,5,0,0,0,58.33,126a10.63,10.63,0,0,1,1.89-4.91,13,13,0,0,0,2.35-4.72,5.49,5.49,0,0,1,.58-1.11l2-.8a20.19,20.19,0,0,1,3.49,2.6c3.79,4.27,8.56,6.91,13.81,8.88a38.71,38.71,0,0,1,4.95,2.56,5.73,5.73,0,0,0,3.93.88,44.81,44.81,0,0,1,5.08-.52,2.74,2.74,0,0,0,2.49-2,7,7,0,0,1,10.9-2.56,9.59,9.59,0,0,0,2.53,1.87,5,5,0,0,0,3,.28c2.09-.58,4.06-1.57,6.14-2.21a23.09,23.09,0,0,0,8.41-5.19,29.73,29.73,0,0,0,2.5-2.83l2.1,1.59c1.66-1.85,3.3-3.74,5-5.55a4.73,4.73,0,0,1,1.94-1.34c3.4-1,3.85-.89,5.32,1.86a24,24,0,0,0,1.38,2l2.09.31c.49,1.79,1.93,2.6,3.54,3.07,2.62-.07,5.5-2.31,7.44,1.11l-2.6,5.39c-.3.22-1,.69-1.6,1.18a5,5,0,0,0-2.23,4.13,3.69,3.69,0,0,1-1.77,3.26c-1.45,1-2.77,2.25-4.23,3.46-1.9-.35-3.8-.75-5.72-1.06s-3.9-.39-5.44,1.24c-1,1-2.28.84-3.45.62a9.65,9.65,0,0,0-7,1.25,7.05,7.05,0,0,1-1.78.7l-1,.24c-.32.08-.63.16-.94.26l.06.69a8.53,8.53,0,0,0,4.39-1.27,7.18,7.18,0,0,1,5.36-1c2,.32,4,.48,5.66-1.29a3,3,0,0,1,2.24-.58c2.4.25,4.79.68,7.18,1a2.76,2.76,0,0,1-1.78,3.09,15,15,0,0,0-2.36,1.24,4.76,4.76,0,0,0-.22,7.92c.58.44,1.15.91,1.72,1.35a3.76,3.76,0,0,1-.31,3.94c-2,3.32-4.07,6.65-6.3,10.3a7.65,7.65,0,0,0,.23,1.51c1,3.09.8,6.28.82,9.45a4.44,4.44,0,0,1-.29,1.42c-1.49,4.38-3,8.77-4.51,13.14a8.85,8.85,0,0,1-.94,1.66c-.55.89-1.13,1.76-1.81,2.83a13.11,13.11,0,0,0,1.71,2,5.62,5.62,0,0,1,2.2,3.92,13.85,13.85,0,0,1-.75,7.64,47.59,47.59,0,0,0-1.85,6.25l-6.39,2.8c-.34,1.77-.67,3.35-.95,4.94s-1.13,2.64-2.92,2.66c-.64,0-1.28.28-1.92.33-3.21.27-5.06,2.33-6.53,4.89a4,4,0,0,0-.5,1.6c-.18,2.15-.16,2.15-2.17,3.86-.45-.4-.9-.83-1.38-1.23a6.28,6.28,0,0,0-4.41-1.73,36.48,36.48,0,0,1-4.35-.49c-.87-.08-1.76,0-2.64,0l.42.58c-.94.78-1.83,1.59-2.79,2.29-.69.51-1.52.83-2.23,1.32s-1.59,1.22-2.39,1.83l.46.43,2.89-1.7a6.44,6.44,0,0,0,1.63-1c2-2.24,4.29-3.25,7.3-2.39a14.2,14.2,0,0,0,2.67.14,5.68,5.68,0,0,1,4.66,4.83,3,3,0,0,1-1.63,3c-.77.42-1.47,1-2.42,1.63l.36,3.91,6.05,3.66-.16,3-2.86,1,.06.69,2.88-.43c.66,1.63,1.37,3.16,1.89,4.77a5.1,5.1,0,0,0,2.34,3c2.32,1.34,4.66,2.66,6.89,3.93,4.5-.66,4.76-.77,6.67,3.16,2,4.16,6,6,9.17,9.07l5.67-1.65a15.35,15.35,0,0,0,.66-3,25.59,25.59,0,0,1,2-9.23c2-5.13,3.45-10.51,7-15a5.44,5.44,0,0,0,.51-5.8,3.52,3.52,0,0,1,.36-3.92,33.22,33.22,0,0,1,4.1-3.8,5.38,5.38,0,0,1,2-.56c1,1.49,2.39,2.71,1.65,4.34a17.2,17.2,0,0,0-1.16,5.65,32.62,32.62,0,0,1-.81,4.29,2.75,2.75,0,0,1-.77,1.44c-3.71,3-4.82,7.1-4.73,11.88-2.6,1.39-2.61,3.63-1.59,6.19a2.64,2.64,0,0,1,.09,1.86,4.5,4.5,0,0,0,.35,4.53l-2.52,2.59a8.37,8.37,0,0,0-3.06,2,14.08,14.08,0,0,0-1.44,3.54l-2.14,5.64a8.44,8.44,0,0,0-.72,2,7.08,7.08,0,0,1-2.92,4.9,7.22,7.22,0,0,0-2.19,3.07,48.33,48.33,0,0,1-2.72,5.42,21.74,21.74,0,0,1-2.54,2.93c-2.12.43-3.47,1-4.2,1.89a2.77,2.77,0,0,0-.55,1.14,4.47,4.47,0,0,0-.06,1.46,9.08,9.08,0,0,0,.21,1.18l.67-.07a10.82,10.82,0,0,1-.08-1.3,3.9,3.9,0,0,1,.21-1.37,2,2,0,0,1,.37-.62c.69-.79,2-1,4-1.53a21.51,21.51,0,0,0,5.84-9.43,4.13,4.13,0,0,1,1.28-1.68c1.87-1.65,3.36-3.5,3.65-6.1a3,3,0,0,1,.5-1.33,19.06,19.06,0,0,0,2.44-6.31c.57-2.13,1.1-4.54,3.8-4.47l3.63-3.54c-2-1.76-1.18-3.64-.66-5.14l-1-4.86,2.56-2.69c0-.5-.09-.89-.11-1.29-.14-3.4.77-6.61,3.26-8.83a7.91,7.91,0,0,0,2.6-5.43c.4-3,.72-6.07,2-8.93.59-1.31.85-2.77,1.32-4.14a27.35,27.35,0,0,1,1.38-3.57c.57-1.13.6-2-.58-2.68l-.11.74h0a1.3,1.3,0,0,1,0,.48c-.85,2.67-1.71,5.33-2.59,8.08L164,235.53a11.36,11.36,0,0,0-2.92,1.15,24.49,24.49,0,0,0-4.06,3.84,3.83,3.83,0,0,0-.66,4.13,6.19,6.19,0,0,1-1,6.86,23.67,23.67,0,0,0-3.94,7.51c-1.45,4.39-3.65,8.54-4.25,13.2-.21,1.59-.32,3.2-.49,4.93l-4.85,1.48c-3.3-2.89-7.21-4.91-9.07-9.14a15.63,15.63,0,0,0-2.52-3.28,4.65,4.65,0,0,0-1-.15c-4.52,1.15-7.39-2.15-10.76-4-.48-.27-.75-1-1-1.61-.77-1.79-1.48-3.6-2.18-5.34l.34-4.07-6.2-3.83-.3-2.95c2.6-1.54,5.26-3.13,3.75-6.78a19.78,19.78,0,0,0,1.89-2.14,4.81,4.81,0,0,0,.89-2.18,6.81,6.81,0,0,1,4.74-6,27.09,27.09,0,0,1,3.61-.62,3.36,3.36,0,0,0,3.22-2.83c.35-1.58.65-3.18,1-5.11L134.5,216c1-3.21,2.36-6.07,2.84-9.06.6-3.74,1-7.72-2.79-10.44a4,4,0,0,1-.78-1c0-.24,0-.35,0-.4,2.74-3.11,3.16-7.21,4.63-10.85.46-1.13.66-2.37,1.19-3.46,2.2-4.54,1.66-9.16.57-13.81-.07-.32-.13-.64-.17-1a3,3,0,0,1,0-.44c1.93-3.14,3.84-6.25,5.74-9.36a15.13,15.13,0,0,0,.91-1.73,3.43,3.43,0,0,0-1.06-4.54c-.76-.61-1.57-1.16-2.32-1.71-.83-3.79-.17-5.24,3.39-6.69,1.26-.51,2.27-1.25,2.43-2.48.22-1.67,1.33-2.54,2.41-3.49s2.27-1.85,3.6-2.93a8.2,8.2,0,0,0,.49-2.14,4.88,4.88,0,0,1,2.6-4.4,4.38,4.38,0,0,0,2.13-3.07,7.93,7.93,0,0,1,1.39-2.49c2.67.61,5,1,7.16,1.69a13.11,13.11,0,0,1,4.16,1.9,6.14,6.14,0,0,0,7.27.45c.86-.47,1.69-1,2.62-1.51l.2-1.66c.21,0,.46-.19.66-.14a16.74,16.74,0,0,1,2.32.69c3.46,1.41,6.91,2.84,10.34,4.32.54.23,1.65.11,1.27,1.31a2.43,2.43,0,0,1,.32.34,2.84,2.84,0,0,0,1.58-3c-.07-2.19.71-4.14,1.29-6.16a18.91,18.91,0,0,0,.79-3.79c.27-3.64,2.42-6.3,4.66-8.84.79-.9,2.12-1.34,3.26-2-.83-1.57-3-2.59-1.83-4.94l3.37-1.25V90.66l-1.45-1.4,3.28-.62c-.78-.57-1.15-.81-1.49-1.08-.62-.5-1.5-.9-1.78-1.55a52.66,52.66,0,0,1-2.18-6.14c-.41-1.39-.39-2.91-.82-4.29A29.39,29.39,0,0,1,206,59a14.7,14.7,0,0,1,4-7.07c1.48-1.43,2.88-2.87,3.12-4.6,1.42-1.16,2.86-1.87,3.58-3a6.38,6.38,0,0,1,3.78-2.82c2.61-.85,4.37-2.82,6.71-4.79-1-.55-1.6-.87-2.19-1.21s-1.38-.82-2-1.17l-3.84.63c-.44-1.27-.88-2.43-1.26-3.62-.19-.6-.08-1.39-.43-1.84a4.18,4.18,0,0,1-.6-3.94,6.35,6.35,0,0,0-.37-3.88c-3.09.73-4.42.58-7.72-.36a11.06,11.06,0,0,0-3.25.16c-.83-.57-2-1.47-3.26-2.22s-2.53-1.28-3.9-2l-.85,1.92a26.33,26.33,0,0,0-2.2-1.72c-1.74-1.09-3.53-2.1-5.26-3.13l1.56-4.26-3.6,1.72c-2-.37-1.89-1.94-2.21-3.25l-1.49-.61c-1.23-4.63-2.19-5.61-7.13-7.69h-5.34a21,21,0,0,1-2.42,1.15c-1.69.88-3.63,1.58-4.88,2.91C163.71,5.24,163,6,161.83,6l-2.44,5.44.38.36,2.51-4.26A32.83,32.83,0,0,0,165.09,5c1.28-1.45,3-2,4.68-2.7,2.18-.92,4.54-.61,6.93-1.46,1.19.66,2.57,1.31,3.83,2.16a4.82,4.82,0,0,1,2,2.07,21.47,21.47,0,0,0,2.74,5.43c1.28,1.9,2,2.41,4.4,2l-.44,1.68,1.18,1.49c-2.51,2.25-6.59,2.18-8.24,5.82,2,2.36,2.6,5.61,5.41,7.33l0,0h0c0-.27.11-.61,0-.79-1.44-2.14-2.93-4.26-4.51-6.55,2.1-2.84,5.55-3.26,7.94-4.92l4.86,2.11-.61,3c1.9-.67,3.36-1.27,3.71-3.1l4.18,2.65c-2.08,1.35-5.12.19-6.88,2.77l1.72,5.69c-2.29,1.9-3.61,2-6,.48a6.18,6.18,0,0,0-4.43-1.37v0c2.15,1.11,4.21,2.54,6.5,3.21,1.78.52,3.56-.7,5.19-1.67L197,23.95c2.94-1.12,5.63-1.92,8.86-1.2,1-.85,2.18-.85,3.75-.25s3.63.51,5.89.76a6.85,6.85,0,0,1,.38,2.08,7.7,7.7,0,0,0,.81,4.65c.89,1.66,1.13,3.67,1.66,5.53,0,.14.19.25.41.52l4.06-.82,2.62,1.8-3.74,3.1c-3-1.33-5.69-.28-8.22,1.05a7.44,7.44,0,0,1-3.68,1c-2.3,0-2.74.29-4.12,2.68l1.61,2.7a2.47,2.47,0,0,1-2,1.64c-1.3.34-2.39,1.43-3.58,2.2H202a2.24,2.24,0,0,0,.81-.09c1.34-.54,2.65-1.14,4.48-1.94l1.37-2L206.75,45a2.45,2.45,0,0,1,2.87-2A7.13,7.13,0,0,0,214,41.88a9.73,9.73,0,0,1,5.08-1.48c-1.16,1.34-2.07,2.84-3.38,3.77a14.68,14.68,0,0,0-4.8,5.48c-.81,1.61-2.6,2.71-3.53,4.28a18.49,18.49,0,0,0-2.59,6.21c-.63,4.07-1.36,8.23.31,12.3a5.84,5.84,0,0,1-.09,2.06c1.53.94,1.35,2.88,1.5,4.59a16.66,16.66,0,0,0,3.09,8.34c-.15,1.07-.69,2.26-.31,2.77,1.52,2.07.46,4.46,1.42,6.63L207,98.6c-1.28,2.2.43,3.54,1,5.1-4.22,3-6.9,6.94-7.23,12.24a9.08,9.08,0,0,1-.41,1.65l-2.1,8.11c-5.53-.92-10.42-4.74-16.57-6l.4,2.81a29.58,29.58,0,0,1-3.93,1.95,4.29,4.29,0,0,1-4.14-.89,12.48,12.48,0,0,0-7.44-2.71,6.18,6.18,0,0,1-4.64-2.39c-1.56-2-3.41-2.25-5.62-1.71-.79.19-1.59.32-2.86.57l-2.78-2.69.2-.27-2.12-.5c-1.89-2.27-2.2-4.32-.55-6.61a31.68,31.68,0,0,1,4.44-4.8,7.4,7.4,0,0,0,2.77-5.18,40.37,40.37,0,0,1,1.53-6.85c.16-.59.57-1.26,1.42-.66l.44-.45L157.51,88l-1.93,2.71-2.72-.4-.07.7.5.49h2.54l-.17,1.09-.14.9-.82,1.9-.2,1.06c-.29,1.15.33,2.6-1.11,3.37l-1.06,1.55a25.44,25.44,0,0,0-5.76,6.82c-.29.53-1.36.62-2.07.92l-3.72,1-.16-3-2.51-4.32L137,101.54c-1.07-.89-2.21-1.56-3.69-1.14l-1,.39-.57-.12a6.84,6.84,0,0,0-1.71-.27c-2.76.07-5.52.3-8.28.32a15.66,15.66,0,0,1-3.2-.68c-.07-3.1-.3-6-.15-8.89.14-2.68-.19-3.54-2.57-4.95a60.12,60.12,0,0,1-6.29-4.12,6,6,0,0,1-1.66-2.84,8.26,8.26,0,0,0-2.71-4.47c-.58-.44-.78-1.4-1.2-2.2,1.33-.84,3.18-.69,2.9-2.62h0v0l-3.25,1.81L103.1,74l-3.36-.17a1.55,1.55,0,0,0,0,.34.61.61,0,0,0,.16.43c.24.24.69.22,1.08.25a14.72,14.72,0,0,1,2.43.09,4.13,4.13,0,0,1,3.19,3.37c.51,3.75,3.22,5.46,5.95,7.25a13.5,13.5,0,0,0,1.29.69c3.7,1.89,3.57,1.88,3.42,6.12-.09,2.58.27,5.18.43,7.77a5.92,5.92,0,0,0,4.51,1.54c3.25-.19,6.51-.24,9.74-.59a5.41,5.41,0,0,1,5.82,3c.9,1.62,2.27,3.08,2,5.12a4.51,4.51,0,0,1-.8,2.18c-1.38,1.71-2.9,3.29-4.41,5l-2-.94c-.58.49-1.13,1-1.69,1.41a72.44,72.44,0,0,1-6.68,5.24c-1.68,1-3.77,1.43-5.67,2.11a16.17,16.17,0,0,0-2.69,1,2.92,2.92,0,0,1-3.61-.13c-.57-.45-1.18-.87-1.72-1.36a7.82,7.82,0,0,0-12.38,2.62,2.16,2.16,0,0,1-2.16,1.55,25,25,0,0,0-4.36.52,5.27,5.27,0,0,1-3.92-.82A44.1,44.1,0,0,0,82,124.8a31,31,0,0,1-12.36-8A25,25,0,0,0,67,114.65c-.66-.55-1.28-1.13-2.11-1.86,1.12-1.38,2-2.64,3-3.71a26.42,26.42,0,0,0,6.76-12.91c.66-2.78,2.26-5.34,3.44-8l5.67-.81-1.3-2.47c2.61-4,4-5,8.77-3.71,1.28.35,2.48.69,4-.77l-2.66-.64-.44-.19-.47-1.18-.09-.72-1.89,2c-1.83.18-4.08-.28-5.5,1.56-1.16,1.52-3.64,2.5-2.32,5.13a5.17,5.17,0,0,1-1.57.49c-2.61-.17-3.55,1.7-4.31,3.6-1.36,3.46-2.66,6.95-3.79,10.49a13.42,13.42,0,0,1-3.44,5.73c-2.69,2.55-4.53,5.68-6.65,8.62a9.8,9.8,0,0,0-.84,2,8,8,0,0,1-.87,2,15.39,15.39,0,0,0-3.2,7.19,3.14,3.14,0,0,1-1.06,2,2.94,2.94,0,0,0-1.31,2.43,8.85,8.85,0,0,1-.75,2.51c-1.12,2.14-2.35,4.21-3.52,6.29Z"/><path class="cls-2" d="M25.33,333.89a2.93,2.93,0,0,0-.13-4.6A4.65,4.65,0,0,1,24,327.92a146.68,146.68,0,0,1-8.59-23.11,2.79,2.79,0,0,1,3.34-.26,15,15,0,0,0,6.68,1.13,37.2,37.2,0,0,1,5.08.45,8.11,8.11,0,0,0,5.64-.91A11.47,11.47,0,0,1,40,303.88a2.85,2.85,0,0,0,2.52-1.95,2.06,2.06,0,0,0,.08-.23c1.1-5.55,4.58-9.38,9-12.62.77-.57,2.09-1,1.91-2.4h0c-5.79,4-11,8.4-11.79,15.29-2.77,1.2-4.85,2.27-7,3a12.3,12.3,0,0,1-4.07.25c-2.1-.07-4.21-.25-6.3-.46-1.44-.15-2.88-.4-4.3-.68S17,303.37,15.4,303c-.49-1.68-1-3.69-1.68-5.67-1-3-3.37-4.83-5.66-6.74C7.38,290,6.68,289.47,6,289c-1.38-1-2.78-1.87-4.28-2.89,1-1.46,4.11-.77,4.49-3.77l-3.37,1.41a8.06,8.06,0,0,1,.53-5.6L5.52,278c.46-2.4-2.79-3.7-1.65-6.46l1.24-.62L5.49,265l3.71-.8c-1-1.69-2.41-.71-3.61-1.32l3.07-5.94c1-1.31-1.19-3,.8-4.41,1.93.82,3.92,1.7,5.94,2.51,3.19,1.28,4.59.8,6.18-2.18s4.29-5.14,7-7.06a76.19,76.19,0,0,1,8.63-5,2.9,2.9,0,0,1,2.13,0,10.54,10.54,0,0,0,6,.2,3.54,3.54,0,0,1,4.26,1.9A24.67,24.67,0,0,1,51,245.14c.77,1.9,1.5,3.8,3.84,4.59L54,252.67c-.54,1.79-1.15,3.57-.29,5.44a2.05,2.05,0,0,1,.16,1.17c-.56,2.89,1.25,4.49,2.91,5.94,2.32.48,3.6-1,5.08-1.76l5.45.87c.1,2,0,4-1.67,5.55-.26.24-.27.75-.38,1.14h0l0,0c2.08-.87,2.78-2.69,2.92-4.68.22-3.08.24-6.17.35-9.26,0-.75.09-1.51.16-2.6L73,256.59c1.92-1.42,3.49-3.51,6.15-2.67a12.63,12.63,0,0,0,1.43-1.58,8.22,8.22,0,0,1,3.93-3.1,13.7,13.7,0,0,0,2.72-2c.38-.3.62-.8,1-1,2.68-1.59,3.79-4.29,5-6.94l-.46-.43c-.11.12-.25.23-.37.34a.87.87,0,0,0-.27.37c-.8,2.79-2.72,4.71-4.91,6.42a16.4,16.4,0,0,1-3.68,2.67c-2.07.81-3.05,2.61-4.42,4-3.25.56-3.25.56-6.3,2.84l-3.46-1.89-1.77,1.06v8.06c-2,1-3.83,0-5.77-.46-.72.49-1.43,1-2.19,1.49-1.62,1-2.65.79-3.78-.69a4.14,4.14,0,0,1-1.11-3.58,2.44,2.44,0,0,0-.11-1.4c-.78-1.88-.3-3.64.35-5.43.37-1,.6-2.12.94-3.34-3.56-1.24-3.73-4.75-5.54-7.08-1.2-1.54-2.74-2.55-4.65-2.26a13.28,13.28,0,0,1-6.51-.19,3.56,3.56,0,0,0-2.35.19,38.93,38.93,0,0,0-12.94,8.58,70.11,70.11,0,0,0-4.49,5.71c-3.53,1-6.88-.73-9.92-5.29l1-2.31,1.74-.28a5.12,5.12,0,0,0-.13-6l-.24-3.61,1.85-1.73L11.53,234c.13-2.15.29-2.47,1.89-3.67L11.52,228c1.88-1.15,3.19,0,4.66.05,1.31.15,2.63.22,3.92.48a3.57,3.57,0,0,0,3.45-.7l.52-3.3,2.27,1c1-1.33,1.68-2.9,2.89-3.85s2.76-1.1,4.46-1.71l.72-1.66.29.32c1.08-.77,2.17-1.51,3.22-2.31s1.86-1.56,2.81-2.3c1.13-.88,2.24-1.19,3.5-.09,1,.89,2,.18,2.86-.44a4.08,4.08,0,0,1,4.89-.22c.81,3.48,3.72,5,6.72,5.86s6,1.6,9-.33L68.83,221H74l-.47-.68-1-.14-3.26-.46-.3-1.59c-.86.06-1.89-.17-2.55.23-2.57,1.54-5.06.25-7.55-.06a6.93,6.93,0,0,1-3.08-1.37c-1.42-1.05-2.84-2.22-2.9-4.15-2.77-2.06-5.15-1-7.31.71-3.27-1.64-4.91-1.29-7.58,1.49-2,2.1-2,2.1-4,2.5-.17.27-.41.6-.6.95a6.09,6.09,0,0,0-.31.7c-1.66.65-3.18.92-4.26,1.75s-1.78,2.26-2.73,3.56l-2.36-1.74c-1.5,1.36-.31,3.25-1.32,5l-6-.56-.09.45-4.32-1.86.74-2.4L11,223l-.78.1c1.2,1.53.71,3.19.36,4.84l.85,1.89c-.38,1.65-1.19,3.12-.87,4.27.61,2.21.07,4.39.56,6.78l1.38,1.47-.8,3-.28-.09-.28-2.63-.72-.09c-1.11,2.37-.32,5.57-3.05,7.19l1.07,1.14L6.17,254.2l1.7.77c.35,2-.78,3.11-2.25,4a.52.52,0,0,0-.1.32l.53.55-.8.44H5v1.8l-1.86,1,.42,1.58-1.89,3.54.3.3,1.72-.76.63,2.35-1.46.8c-.74,2.39.43,4.15,1.42,5.88-3.86,1.64-2.24,5.12-2.81,7.9L.35,286.18c2.5,1.83,4.82,3.69,7.3,5.31a13.86,13.86,0,0,1,6.26,9.2c.26,1.25.11,2.6.46,3.81,1.09,3.74,2.19,7.49,3.57,11.12,1.7,4.48,3.7,8.85,5.54,13.28a18.5,18.5,0,0,1,.74,2.58,3.2,3.2,0,0,1-.53,3,3.13,3.13,0,0,0-.32,3.65l.62,0A4.08,4.08,0,0,1,25.33,333.89ZM4.24,267.27l-.77-.34.68-1.74.44.12Z"/><path class="cls-12" d="M118,332.64a7.87,7.87,0,0,0-6.32,6.64c-.2,1-.37,2.08-.47,3.13a5.78,5.78,0,0,1-1.8,3.6,9.52,9.52,0,0,0-2.22,3.12c-1.11,3-1.93,6-2.92,9s-2,6-3.11,8.92c-1.15,3.2-2.34,6.38-3.51,9.57l.72.06c1.59-3.9,3.34-7.75,4.73-11.72,1.55-4.44,2.82-9,4.12-13.49a9.45,9.45,0,0,1,2.87-5,6,6,0,0,0,2-4c.14-1,.29-2.09.49-3.13a6.74,6.74,0,0,1,3.63-5.19,9.45,9.45,0,0,0,1.77-1.49h0Z"/><path class="cls-12" d="M184.43,164.56c-.7.76-1.29,1.51-2,2.14-1.92,1.73-3.1,3.62-2.39,6.42.28,1.09-.29,2.38-.35,3.59a38.68,38.68,0,0,1-3.38,12.85,10.27,10.27,0,0,0-.52,4.51,7.16,7.16,0,0,1-1.12,4.86,7.23,7.23,0,0,0-1.17,2.65,9.9,9.9,0,0,0-.21,1.41q0,.36,0,.72c0,.24,0,.49,0,.73l.78.1c-.11-2.61,1.18-4.75,2.22-7a9.7,9.7,0,0,0,.4-3.07c.14-1.52-.11-3.2.46-4.54a42,42,0,0,0,3.54-13.82c.06-1,.58-2.18.3-3.08-.8-2.55.39-4.2,2.09-5.75l2.3-2.13a15.92,15.92,0,0,0-1-2.66c-.82-1.39-1.8-2.68-2.72-4l-.5.56Z"/><path class="cls-2" d="M34.84,167a25.93,25.93,0,0,1,2.33-4.41,37.38,37.38,0,0,1,4.27-4c.93-1.12,2-2.37,3-3.68.42-.55,1-1.32.92-1.86-.65-3.19,1-5.56,2.56-8l-.46-.43c-2.69,2.48-3.31,5.73-3.35,9.09a16.85,16.85,0,0,0-2.44,3,8.05,8.05,0,0,1-2.29,2.37c-1.1,1-2.49,1.92-3.17,3.18-2,3.75-3.73,7.66-5.56,11.51l.38.36Q33,170.63,34.84,167Z"/><path class="cls-2" d="M195.9,130.54c-.3.65-.31,1.68-.78,2-2,1.18-3.21,3.34-5.17,4.54a9.82,9.82,0,0,0-3.47,3.67,4.61,4.61,0,0,0-.53,4.13,5.25,5.25,0,0,1-1.68,6c-.61.53-1.15,1.14-1.72,1.72l.35.35c3.31-1.81,5.16-4.86,3.72-8.92a2.43,2.43,0,0,1,.1-1.63,9.82,9.82,0,0,1,3.54-4.47,42.67,42.67,0,0,0,5.54-4.78,5.74,5.74,0,0,0,1-2.17c.3-.83.54-1.68.81-2.52a2.69,2.69,0,0,1-.35-.32C196.78,128.88,196.3,129.69,195.9,130.54Z"/><path class="cls-7" d="M172.74,207.37c-.68,2.89-1.73,5.71-1.78,8.77,0,1.85-1,3.69-1.54,5.52a43.11,43.11,0,0,0-1.45,4.83,5.44,5.44,0,0,0-.06,1.88,2.73,2.73,0,0,0,.6,1.31,2.89,2.89,0,0,0,.39.38l.11-.74c-.6-2.69.22-5.15,1.31-7.52a17.25,17.25,0,0,0,1.64-6.8,22,22,0,0,1,.58-3.84c.46-2.21,1-4.41,1.51-6.61l-.78-.1A22.33,22.33,0,0,1,172.74,207.37Z"/><path class="cls-7" d="M168.89,230.05l.11-.74-.11.74Z"/><path class="cls-12" d="M132.15,315.46l.32,2c-.69,1.43-1.1,2.46-1.66,3.41a30.07,30.07,0,0,1-2.12,3.1c-.64.82-1.39,1.55-2.09,2.32.22,0,.52.21.63.12,1.85-1.43,3.71-2.85,4.47-5.22.15-.46.18-1.06.5-1.34a3.13,3.13,0,0,0,1.19-2.91,5.46,5.46,0,0,0-.12-.68c-.06-.23-.12-.45-.2-.68s-.24-.69-.37-1h0l-.67.07Z"/><path class="cls-12" d="M133.06,315.6c-.11-.34-.24-.69-.37-1h0C132.82,314.91,132.95,315.26,133.06,315.6Z"/><path class="cls-12" d="M95.47,72.22l2,.64,0,0,0,0-.18-1.08c2.65-1.74,2.8-4.71,3.4-7.49l-.45-.4L98.2,70.12c-4,1.55-4.26,1.87-4.52,4.7h.4Z"/><path class="cls-12" d="M118,332.64h0l0,0c2.14-1.19,4.3-2.34,6.41-3.57a8.45,8.45,0,0,0,1.84-1.52c.19-.2.07-.69.09-1-1.7,1-3.37,2.14-5.1,3.13C119.95,330.42,118.37,330.85,118,332.64Z"/><path class="cls-12" d="M118,332.66h0l0,0Z"/><path class="cls-12" d="M118.06,332.64h0v0Z"/><path class="cls-2" d="M181.32,154a4.92,4.92,0,0,0-.65,1.57,4.84,4.84,0,0,0-.06,1.7,6.71,6.71,0,0,0,.54,1.83l.5-.56a7.23,7.23,0,0,1,1.27-5.62l-.35-.35A7,7,0,0,0,181.32,154Z"/><path class="cls-13" d="M94.09,74.81h-.4l-.8,1.67.28.33A1.75,1.75,0,0,0,94.09,74.81Z"/><path class="cls-13" d="M91.69,78.4l.76-.81-.37-.38-.48.47Z"/><path class="cls-13" d="M93.16,76.83l-.28-.33-.8.72.37.38Z"/><path class="cls-6" d="M109.66,255.51a10.41,10.41,0,0,0-3,1,13.87,13.87,0,0,0-7.15,8.73,10.83,10.83,0,0,1-2.42,5.22,6.13,6.13,0,0,0-1.41,5.7,11,11,0,0,1-.57,6.43A23.1,23.1,0,0,0,94,288.92a1.05,1.05,0,0,1-.12.21,16.83,16.83,0,0,0-4.67,9.66,9.18,9.18,0,0,0,1.4,6.85c.86,1.25,1.94,2.47,1.58,4.43l-1.76-.27a4.11,4.11,0,0,0-3.22.68c-2.44,1.68-3.79,1.55-6.13-.35s-4.83-2.9-7.84-1.5a4.15,4.15,0,0,1-5.1-.89c-2-1.88-3.24-1.64-4.9.39l-4.05,4.95a33.46,33.46,0,0,1-4.62.39,33.58,33.58,0,0,1-4.68-.84c-1.64,2.58-2.3,5.52-3.18,8.35a11.58,11.58,0,0,0-.24,6.26,7.36,7.36,0,0,1-.1,2.87,27.45,27.45,0,0,1-1,3.77,13.7,13.7,0,0,0,.38,10,4.42,4.42,0,0,1-.25,4c-.83,1.75-1.51,3.58-2.26,5.37l.66,0c1-2.13,2-4.24,2.93-6.42a3.27,3.27,0,0,0,0-2.31c-1.9-4.23-1.38-8.44,0-12.64a11.13,11.13,0,0,0,.44-5.73,10.23,10.23,0,0,1,.24-4.33c.69-2.74,1.65-5.42,2.54-8.23,1.5.28,2.76.59,4,.72,2.83.31,5.52.2,7.35-2.53A31.2,31.2,0,0,1,64,308.59c1.19-1.34,2.12-1.57,3.31-.34,2,2.1,4.21,2.23,6.66,1.08,2.23-1,4.09-.16,5.9,1,.54.36,1,.85,1.53,1.21,1.68,1.13,3.56,1.55,5.23.28,1.89-1.44,3.71-1.39,6-.37l1,3.57c.83.5,1.71.94,2.49,1.51,1.61,1.17,1.74,2.34,1,4.19a6.18,6.18,0,0,0-.33,3.27,2.51,2.51,0,0,1-1.44,3c-2.71,1.47-5.44,2.95-8.6,3.15a2.91,2.91,0,0,0-2.92,2.45c-.49,2-1.79,3.6-2.89,5.31-2.18,3.42-3.6,7.1-2.89,11.28a7.16,7.16,0,0,0,.71,2.31,9,9,0,0,1,1.21,5.86,5.42,5.42,0,0,0,1.51,4.45,28.79,28.79,0,0,1,1.9,2.94c-1,.72-1.86,1.22-2.59,1.84-2.3,1.92-2.54,5.25,0,6.61,3.38,1.84,3.86,4.72,4.08,7.95,0,.48.13,1,.2,1.44h.73c0-.89,0-1.79-.12-2.68-.26-3-1-5.59-4.11-7.2-2.21-1.16-2.07-3.87-.07-5.5.81-.66,1.68-1.24,2.31-1.7.61-1.7-.26-2.71-1.07-3.56a6.4,6.4,0,0,1-1.76-5.59,6.87,6.87,0,0,0-1-4.44,9.54,9.54,0,0,1-1.1-5.66,16.17,16.17,0,0,1,2.89-7.91A16.83,16.83,0,0,0,84.55,333a4.83,4.83,0,0,1,.66-1.3c2.6-.85,4.83-1.52,7-2.32s4.66-1.58,5.49-4.18A11.3,11.3,0,0,1,98,321c.81-2.2.62-3.62-1.32-5.07-.77-.58-1.63-1.05-2.46-1.59a8.24,8.24,0,0,0-.19-1.24c-.74-2.38-.45-5-2.17-7.15a8.4,8.4,0,0,1-1.6-7.73c.59-2.61,1.16-5.09,3.07-7a5.25,5.25,0,0,0,1.64-4.6,5.26,5.26,0,0,1,.52-2.33c1.1-2.75,2-5.46,1.16-8.52a5.09,5.09,0,0,1,1.19-4.8,12.28,12.28,0,0,0,2.68-5.64,12,12,0,0,1,6.83-8.09,21.13,21.13,0,0,1,4.44-1.12l-.06-.69A8.33,8.33,0,0,0,109.66,255.51Z"/><path class="cls-2" d="M162.59,89.5c.84-1.14,1.56-2.38,2.46-3.78l-1-2.86,1.07-2.24c4.24-.43,4.46-.56,8.11-4.73a29.23,29.23,0,0,0,3.77-2,4.09,4.09,0,0,0,1.75-4,4.42,4.42,0,0,1,2.85-5.25q2.54-1.1,5-2.32a14.09,14.09,0,0,0,2.46-1.48,20,20,0,0,1,6.27-3.6,12,12,0,0,0,6-4.75c.09-.12-.05-.41-.08-.62l0,0,0,0c-.49.4-1,.77-1.48,1.2a16.73,16.73,0,0,1-6.32,4c-1.85.59-3.38,2.17-5.11,3.23-.95.58-2,.95-3,1.49-2.2,1.21-4.44,2.36-6.53,3.74-1.19.79-1.06,2.29-1.06,3.6,0,3.38-.61,4.05-3.7,5.4A10.76,10.76,0,0,0,171,77.08c-1.6,1.68-3.3,2.92-6,2.09,0-2.5-1.81-4.06-3.51-5.68l-.45.45a14,14,0,0,0,1.51,1.88A5.12,5.12,0,0,1,164,80.26a11.71,11.71,0,0,1-.9,2.81l1,2.52-2.89,3.94-2.45-.15-.44.45A3.15,3.15,0,0,0,162.59,89.5Z"/><path class="cls-6" d="M113.38,46.82c1.3,0,2.64.08,3.44,1.6L115.72,51c1.88,2,4.35,1.55,6.81,1.8l1.81,2.52,3.08-1.56.91,1.29-1.06,3.29,2,2.31,1.09.6,2.4,2.57,1.7,1a12.11,12.11,0,0,1,6.19,2.27l2.41,1.52c2.48,2.2,2.62,5.06,2.28,8.06l.65.94a13.63,13.63,0,0,1,1.6,1.13,11.55,11.55,0,0,1,1.14,1.45l.45-.38-1.12-2.52-1.64-.77c0-.87,0-1.68,0-2.48-.17-2.42-.78-4.73-2.85-6.19a17.29,17.29,0,0,0-5.52-3c-4.23-1-6.75-4.17-9.84-6.76L129.36,55l-2-2.22-2.73,1.5-1.79-2.39c-4.26-.14-4.26-.14-5.9-1.2l1-2.32c-.76-1.6-2.09-2.55-3.54-2.31-1.77.29-3.42-.37-5.12-.11v.86C110.63,46.8,112,46.77,113.38,46.82Z"/><path class="cls-2" d="M160.28,71.36a4.12,4.12,0,0,1,.54-4.13c1.27-1.79,1-3.47-.52-5.07a24.26,24.26,0,0,1-1.88-1.91,3.92,3.92,0,0,0-3.58-1.67,9.08,9.08,0,0,1-1.95-.05,24.53,24.53,0,0,1-2.47-.7c-.18-.81-.36-1.81-.64-2.77a4.81,4.81,0,0,0-.17-.47c-.19-.47-.44-.91-.66-1.37l-.4.37a4.12,4.12,0,0,1,.27,1.27c0,.22,0,.44,0,.67a3.72,3.72,0,0,0,1.22,3.14,27.56,27.56,0,0,0,4.66.78,3.64,3.64,0,0,1,3,1.34c.58.77,1.38,1.37,2,2.08a3.07,3.07,0,0,1,.35,4c-1.63,2.68-1.37,4.71.92,7.1l.45-.45A15.44,15.44,0,0,1,160.28,71.36Z"/><path class="cls-6" d="M151.63,83.86a4.83,4.83,0,0,1-.33-1.16,3.43,3.43,0,0,0-2.08-2.8l-.45.38.44.77c1.19.48,1.15,1.54,1.22,2.56l1,2.45c-.35,1.29-1.19,2.57-.1,3.9l1.43,1,.07-.7-1.19-1.84C152.54,86,152.53,86,151.63,83.86Z"/><path class="cls-9" d="M167.91,228.37a5.44,5.44,0,0,1,.06-1.88,43.11,43.11,0,0,1,1.45-4.83c.56-1.84,1.51-3.67,1.54-5.52.05-3.05,1.09-5.87,1.78-8.77a22.33,22.33,0,0,0,.52-2.93c0-.25,0-.49,0-.73s0-.48,0-.72a9.9,9.9,0,0,1,.21-1.41,7.23,7.23,0,0,1,1.17-2.65,7.16,7.16,0,0,0,1.12-4.86,10.27,10.27,0,0,1,.52-4.51,38.68,38.68,0,0,0,3.38-12.85c.06-1.21.63-2.49.35-3.59-.71-2.8.46-4.69,2.39-6.42.7-.63,1.29-1.38,2-2.14l-3.28-5.51a6.71,6.71,0,0,1-.54-1.83,4.84,4.84,0,0,1,.06-1.7,4.92,4.92,0,0,1,.65-1.57,7,7,0,0,1,1.24-1.44c.57-.58,1.11-1.19,1.72-1.72a5.25,5.25,0,0,0,1.68-6,4.61,4.61,0,0,1,.53-4.13,9.82,9.82,0,0,1,3.47-3.67c2-1.2,3.13-3.35,5.17-4.54.48-.28.48-1.31.78-2,.4-.85.88-1.66,1.33-2.49l.49-.49c.39-1.2-.72-1.08-1.27-1.31-3.43-1.48-6.88-2.91-10.34-4.32a16.74,16.74,0,0,0-2.32-.69c-.2,0-.45.09-.66.14l-.2,1.66c-.93.54-1.76,1-2.62,1.51a6.14,6.14,0,0,1-7.27-.45,13.11,13.11,0,0,0-4.16-1.9c-2.2-.66-4.48-1.07-7.16-1.69a7.93,7.93,0,0,0-1.39,2.49,4.38,4.38,0,0,1-2.13,3.07,4.88,4.88,0,0,0-2.6,4.4,8.2,8.2,0,0,1-.49,2.14c-1.33,1.08-2.51,2-3.6,2.93s-2.19,1.82-2.41,3.49c-.16,1.23-1.17,2-2.43,2.48-3.56,1.45-4.22,2.9-3.39,6.69.75.55,1.57,1.09,2.32,1.71a3.43,3.43,0,0,1,1.06,4.54,15.13,15.13,0,0,1-.91,1.73c-1.9,3.12-3.81,6.22-5.74,9.36a3,3,0,0,0,0,.44c0,.32.1.65.17,1,1.09,4.66,1.63,9.27-.57,13.81-.53,1.09-.73,2.33-1.19,3.46-1.47,3.65-1.89,7.75-4.63,10.85,0,0,0,.16,0,.4a4,4,0,0,0,.78,1c3.77,2.72,3.39,6.7,2.79,10.44-.48,3-1.8,5.85-2.84,9.06l-6.15,2.58c-.4,1.94-.7,3.53-1,5.11a3.36,3.36,0,0,1-3.22,2.83,27.09,27.09,0,0,0-3.61.62,6.81,6.81,0,0,0-4.74,6,4.81,4.81,0,0,1-.89,2.18,19.78,19.78,0,0,1-1.89,2.14c1.51,3.65-1.15,5.24-3.75,6.78l.3,2.95,6.2,3.83-.34,4.07c.7,1.73,1.42,3.55,2.18,5.34.25.58.51,1.34,1,1.61,3.37,1.89,6.25,5.19,10.76,4a4.65,4.65,0,0,1,1,.15,15.63,15.63,0,0,1,2.52,3.28c1.86,4.23,5.76,6.25,9.07,9.14l4.85-1.48c.17-1.73.28-3.34.49-4.93.6-4.66,2.8-8.81,4.25-13.2a23.67,23.67,0,0,1,3.94-7.51,6.19,6.19,0,0,0,1-6.86,3.83,3.83,0,0,1,.66-4.13,24.49,24.49,0,0,1,4.06-3.84,11.36,11.36,0,0,1,2.92-1.15l2.34,3.09c.88-2.75,1.74-5.41,2.59-8.08a1.3,1.3,0,0,0,0-.48,2.89,2.89,0,0,1-.39-.38A2.73,2.73,0,0,1,167.91,228.37Z"/><path class="cls-9" d="M180.6,157.23a4.84,4.84,0,0,1,.06-1.7A4.84,4.84,0,0,0,180.6,157.23Z"/><path class="cls-9" d="M113.45,145.66a3.35,3.35,0,0,0-3.46,1.82,5.42,5.42,0,0,1-4.81,3.16,4.25,4.25,0,0,0-1.32.53,15.56,15.56,0,0,1-4.38,1.29L97.35,155c-1.8-.37-1.32-2-2.35-3.23L92.66,151c-1.54,1.71-1.62,3.59-1.13,5.69a8.88,8.88,0,0,0-1.43.85,8.74,8.74,0,0,0-2.32,2.33,16.48,16.48,0,0,1-4.29,5.26,3.88,3.88,0,0,1-2.62.75c-2-.17-4-.85-6-.88a31,31,0,0,0-5.5.9l1.73,2.85-2.26,4.57a1,1,0,0,0,0,.52c1,2,.43,3.89-.47,5.81a9.7,9.7,0,0,0-1.11,3.92,5.47,5.47,0,0,0,3.19,4.84c1.59.88,3.08,1.93,4.81,3l-6.64,3.31,2.49,4-2.1,2.54.32,2.07c.33,2.18.58,4.33-.36,6.47a17.19,17.19,0,0,0-.69,3.34l2.35-.48,1.59,2.3,5.29-2.71c3,1.13,6,2.2,9,3.44a14.72,14.72,0,0,1,2.7,1.92c-.65,3.72-2.16,7.15-.8,10.74.65,2.6,2.51,4,5.78,4,1.32,0,2.7.89,4-.13.2-.15.92.38,1.39.6v0c.88,0,1.77-.07,2.64,0a36.48,36.48,0,0,0,4.35.49,6.28,6.28,0,0,1,4.41,1.73c.48.4.93.83,1.38,1.23,2-1.71,2-1.71,2.17-3.86a4,4,0,0,1,.5-1.6c1.47-2.56,3.32-4.63,6.53-4.89.65-.05,1.28-.33,1.92-.33,1.8,0,2.64-1,2.92-2.66s.61-3.17.95-4.94l6.39-2.8a47.59,47.59,0,0,1,1.85-6.25,13.85,13.85,0,0,0,.75-7.64,5.62,5.62,0,0,0-2.2-3.92,13.11,13.11,0,0,1-1.71-2c.69-1.07,1.26-1.94,1.81-2.83a8.85,8.85,0,0,0,.94-1.66c1.53-4.37,3-8.75,4.51-13.14a4.44,4.44,0,0,0,.29-1.42c0-3.17.14-6.35-.82-9.45a7.65,7.65,0,0,1-.23-1.51c2.23-3.65,4.26-7,6.3-10.3a3.76,3.76,0,0,0,.31-3.94c-.57-.45-1.13-.91-1.72-1.35a4.76,4.76,0,0,1,.22-7.92,15,15,0,0,1,2.36-1.24,2.76,2.76,0,0,0,1.78-3.09c-2.39-.36-4.77-.79-7.18-1a3,3,0,0,0-2.24.58c-1.65,1.77-3.62,1.61-5.66,1.29a7.18,7.18,0,0,0-5.36,1,8.53,8.53,0,0,1-4.39,1.27c-2.17,1.25-4.37,2.45-6.49,3.78C115.9,145.14,114.92,145.86,113.45,145.66Z"/><path class="cls-5" d="M88.21,246.24c-.4.24-.65.74-1,1a13.7,13.7,0,0,1-2.72,2,8.22,8.22,0,0,0-3.93,3.1,12.63,12.63,0,0,1-1.43,1.58c-2.66-.84-4.23,1.25-6.15,2.67l-4.31-2.09c-.07,1.09-.14,1.85-.16,2.6-.11,3.09-.13,6.18-.35,9.26-.15,2-.84,3.81-2.92,4.68v0l-1,.48c0,.28.13.63,0,.83-2.15,3.69-4.24,7.41-6.54,11a17.66,17.66,0,0,1-3.24,3.21c-.2.18-.64.11-1,.13.18,1.43-1.14,1.83-1.91,2.4-4.39,3.24-7.86,7.07-9,12.62a2.06,2.06,0,0,1-.08.23A2.85,2.85,0,0,1,40,303.88a11.47,11.47,0,0,0-3.84,1.34,8.11,8.11,0,0,1-5.64.91,37.2,37.2,0,0,0-5.08-.45,15,15,0,0,1-6.68-1.13,2.79,2.79,0,0,0-3.34.26A146.68,146.68,0,0,0,24,327.92a4.65,4.65,0,0,0,1.17,1.37,2.93,2.93,0,0,1,.13,4.6A4.08,4.08,0,0,0,24,338.06l2.66,5.79,3.93,5.37,2,2.45.47.49c.81.66,1.64,1.3,2.43,2,1.14,1,2.25,2,3.48,3l1.23-1.88,2.12,1.87c.22-.67.46-1.23.6-1.81s.26-1.41.38-2.12c.75-1.79,1.42-3.62,2.26-5.37a4.42,4.42,0,0,0,.25-4,13.7,13.7,0,0,1-.38-10,27.45,27.45,0,0,0,1-3.77,7.36,7.36,0,0,0,.1-2.87,11.58,11.58,0,0,1,.24-6.26c.89-2.84,1.54-5.77,3.18-8.35a33.58,33.58,0,0,0,4.68.84,33.46,33.46,0,0,0,4.62-.39l4.05-4.95c1.67-2,2.95-2.26,4.9-.39a4.15,4.15,0,0,0,5.1.89c3-1.4,5.48-.41,7.84,1.5s3.69,2,6.13.35a4.11,4.11,0,0,1,3.22-.68l1.76.27c.36-2-.72-3.19-1.58-4.43a9.18,9.18,0,0,1-1.4-6.85,16.83,16.83,0,0,1,4.67-9.66,1.05,1.05,0,0,0,.12-.21,23.1,23.1,0,0,1,1.19-6.37,11,11,0,0,0,.57-6.43,6.13,6.13,0,0,1,1.41-5.7,10.83,10.83,0,0,0,2.42-5.22,13.87,13.87,0,0,1,7.15-8.73,10.41,10.41,0,0,1,3-1,8.34,8.34,0,0,1,2-.08l2.86-1,.16-3-6.05-3.66-.36-3.91c.95-.64,1.64-1.2,2.42-1.63a3,3,0,0,0,1.63-3,5.68,5.68,0,0,0-4.66-4.83,14.2,14.2,0,0,1-2.67-.14c-3-.86-5.32.15-7.3,2.39a6.44,6.44,0,0,1-1.63,1l-2.89,1.7C92,241.95,90.89,244.64,88.21,246.24Z"/><path class="cls-5" d="M65.21,271h0l-1,.48Z"/><path class="cls-5" d="M201.26,51.79c0,.21.17.49.08.62a12,12,0,0,1-6,4.75,20,20,0,0,0-6.27,3.6,14.09,14.09,0,0,1-2.46,1.48q-2.49,1.22-5,2.32a4.42,4.42,0,0,0-2.85,5.25,4.09,4.09,0,0,1-1.75,4,29.23,29.23,0,0,1-3.77,2c-3.65,4.16-3.86,4.3-8.11,4.73L164,82.85l1,2.86c-.9,1.4-1.62,2.64-2.46,3.78a3.15,3.15,0,0,1-4.26.34c-.85-.6-1.26.07-1.42.66a40.37,40.37,0,0,0-1.53,6.85,7.4,7.4,0,0,1-2.77,5.18,31.68,31.68,0,0,0-4.44,4.8c-1.65,2.29-1.34,4.34.55,6.61l2.12.5-.2.27,2.78,2.69c1.27-.25,2.07-.38,2.86-.57,2.22-.54,4.06-.33,5.62,1.71a6.18,6.18,0,0,0,4.64,2.39,12.48,12.48,0,0,1,7.44,2.71,4.29,4.29,0,0,0,4.14.89,29.58,29.58,0,0,0,3.93-1.95l-.4-2.81c6.16,1.21,11,5,16.57,6l2.1-8.11a9.08,9.08,0,0,0,.41-1.65c.33-5.3,3-9.2,7.23-12.24-.55-1.57-2.26-2.91-1-5.1l3.71-1.76c-1-2.17.1-4.56-1.42-6.63-.38-.51.16-1.7.31-2.77a16.66,16.66,0,0,1-3.09-8.34c-.15-1.7,0-3.65-1.5-4.59a5.84,5.84,0,0,0,.09-2.06c-1.67-4.07-.94-8.24-.31-12.3a18.49,18.49,0,0,1,2.59-6.21c.92-1.58,2.71-2.67,3.53-4.28a14.68,14.68,0,0,1,4.8-5.48c1.31-.94,2.22-2.44,3.38-3.77A9.73,9.73,0,0,0,214,41.88,7.13,7.13,0,0,1,209.62,43a2.45,2.45,0,0,0-2.87,2l1.89,2.24-1.37,2c-1.83.8-3.15,1.4-4.48,1.94a2.24,2.24,0,0,1-.81.09h-.28l0,0Z"/><path class="cls-5" d="M66.08,153.8a46.41,46.41,0,0,1,2,5.43,11.58,11.58,0,0,1,.31,1.9c4,1.54,7.75,3.7,12.14,3.88a3.19,3.19,0,0,0,3-1.1c1.18-1.54,2.29-3.13,3.53-4.61,1-1.14,2.07-2.15,3.3-3.41-.24-2.46,0-3.41,1.83-5.66,2.35,0,4.26.62,4.71,3.72l2.16-2.49a5.45,5.45,0,0,0,4.65-1.32,1.44,1.44,0,0,1,.86-.41c2.35.14,3.68-1.18,4.84-3a4,4,0,0,1,3.93-2,4.29,4.29,0,0,0,3.12-1.05,45.4,45.4,0,0,1,4.24-2.85,13.36,13.36,0,0,1,2.73-.87h0c.31-.1.62-.18.94-.26l1-.24a7.05,7.05,0,0,0,1.78-.7,9.65,9.65,0,0,1,7-1.25c1.18.22,2.47.42,3.45-.62,1.55-1.63,3.48-1.55,5.44-1.24s3.83.7,5.72,1.06c1.46-1.21,2.78-2.43,4.23-3.46a3.69,3.69,0,0,0,1.77-3.26,5,5,0,0,1,2.23-4.13c.65-.49,1.31-1,1.6-1.18l2.6-5.39c-1.95-3.42-4.82-1.18-7.44-1.11-1.61-.48-3-1.29-3.54-3.07l-2.09-.31a24,24,0,0,1-1.38-2c-1.47-2.75-1.92-2.84-5.32-1.86a4.73,4.73,0,0,0-1.94,1.34c-1.71,1.81-3.35,3.69-5,5.55l-2.1-1.59a29.73,29.73,0,0,1-2.5,2.83,23.09,23.09,0,0,1-8.41,5.19c-2.08.64-4,1.63-6.14,2.21a5,5,0,0,1-3-.28,9.59,9.59,0,0,1-2.53-1.87,7,7,0,0,0-10.9,2.56,2.74,2.74,0,0,1-2.49,2,44.81,44.81,0,0,0-5.08.52,5.73,5.73,0,0,1-3.93-.88,38.71,38.71,0,0,0-4.95-2.56c-5.26-2-10-4.62-13.81-8.88a20.19,20.19,0,0,0-3.49-2.6l-2,.8a5.49,5.49,0,0,0-.58,1.11,13,13,0,0,1-2.35,4.72A10.63,10.63,0,0,0,58.33,126,5,5,0,0,1,55.9,130c.12,3.88-2.84,6.33-4.13,9.57,1.91.75,3.35,1.73,3.53,3.92l-1.08.62c.79,1.86,1.35,3.38,2.07,4.84a5.59,5.59,0,0,0,5.92,3.31A2.79,2.79,0,0,1,66.08,153.8Z"/><path class="cls-5" d="M123.44,140c.31-.1.62-.18.94-.26-.32.08-.63.16-.94.26Z"/><path class="cls-5" d="M157.79,17.21a16.89,16.89,0,0,1-11,5.51c-.91.09-1.82.28-2.73.42l-.37.76c.49.28,1,.54,1.46.83,2.68,1.68,5.39,3.31,8,5.08,1.25.84,2.79,1.72,3.4,3a6.67,6.67,0,0,1-3,8.58,25.37,25.37,0,0,1-4.8,1.51c-.68,1.59-1.75,3.1-1.08,4.66l-1,3.47.66.63L149,53.21c.21.46.46.91.66,1.37a4.81,4.81,0,0,1,.17.47c.29,1,.46,2,.64,2.77a24.53,24.53,0,0,0,2.47.7,9.08,9.08,0,0,0,1.95.05,3.92,3.92,0,0,1,3.58,1.67,24.26,24.26,0,0,0,1.88,1.91c1.51,1.6,1.78,3.28.52,5.07a4.12,4.12,0,0,0-.54,4.13,15.44,15.44,0,0,0,1.19,2.12c1.69,1.62,3.48,3.18,3.51,5.68,2.73.83,4.43-.41,6-2.09a10.76,10.76,0,0,1,3.07-2.66c3.08-1.35,3.69-2,3.7-5.4,0-1.31-.13-2.81,1.06-3.6,2.09-1.38,4.33-2.53,6.53-3.74,1-.54,2-.91,3-1.49,1.72-1.06,3.25-2.63,5.11-3.23a16.73,16.73,0,0,0,6.32-4c.47-.43,1-.8,1.48-1.2h0l.48-.48,0,0c1.18-.76,2.28-1.86,3.58-2.2a2.47,2.47,0,0,0,2-1.64l-1.61-2.7c1.38-2.39,1.82-2.69,4.12-2.68a7.44,7.44,0,0,0,3.68-1c2.52-1.33,5.21-2.38,8.22-1.05l3.74-3.1-2.62-1.8-4.06.82c-.22-.27-.36-.38-.41-.52-.54-1.85-.77-3.86-1.66-5.53a7.7,7.7,0,0,1-.81-4.65,6.85,6.85,0,0,0-.38-2.08c-2.27-.25-4.23-.12-5.89-.76s-2.75-.6-3.75.25c-3.23-.71-5.93.09-8.86,1.2l2.2,6.42c-1.63,1-3.4,2.2-5.19,1.67-2.28-.67-4.34-2.1-6.5-3.21h0c-2.8-1.72-3.46-5-5.41-7.33,1.65-3.63,5.72-3.57,8.24-5.82l-1.18-1.49.44-1.68c-2.44.41-3.12-.11-4.4-2a21.47,21.47,0,0,1-2.74-5.43,4.82,4.82,0,0,0-2-2.07c-1.25-.85-2.64-1.5-3.83-2.16-2.39.86-4.75.54-6.93,1.46-1.7.72-3.4,1.25-4.68,2.7a32.83,32.83,0,0,1-2.81,2.52l-2.51,4.26L158,15C158.89,15.72,158.4,16.55,157.79,17.21Zm6.85,2.57a22.28,22.28,0,0,0,2.66-2.07c2.08-1.85,4.13-3.74,6.21-5.64l.83.65,2.33,1.83c.34,1.59.66,3.18,1,4.76a2.54,2.54,0,0,0,.51,1.31,2.87,2.87,0,0,1,.61,3.87L182,27.33,180.74,33l2.85,1.89c-.7,2.65-2.93,1.9-4.52,2.42-1,2.33-.06,4.11,1.81,5.81-2.45,1.74-4.75.55-6.39.78-1.44-1.46-2.59-2.45-3.52-3.61a43.15,43.15,0,0,1-2.47-3.82L167,38.53c-2.27-.89-2.72-2-2-5.12l2-.86c0-.91,0-1.72,0-2.52-.19-2.67-.22-2.71-3-3.17a2,2,0,0,1-1.89-1.59C161.84,23.67,163.24,20.69,164.65,19.78Z"/><path class="cls-5" d="M98.51,74.27c-.19,0-.36-.61-.53-.94h0l-.47-.47-2-.64-1.38,2.59a1.75,1.75,0,0,1-.93,2l-.71.76-.76.81.47,1.18.44.19,2.66.64c-1.49,1.46-2.69,1.12-4,.77-4.75-1.31-6.15-.26-8.77,3.71l1.3,2.47-5.67.81c-1.18,2.66-2.77,5.22-3.44,8A26.42,26.42,0,0,1,68,109.08c-1.05,1.07-1.91,2.33-3,3.71.82.73,1.45,1.31,2.11,1.86a25,25,0,0,1,2.62,2.15,31,31,0,0,0,12.36,8,44.1,44.1,0,0,1,5.64,2.79,5.27,5.27,0,0,0,3.92.82,25,25,0,0,1,4.36-.52,2.16,2.16,0,0,0,2.16-1.55,7.82,7.82,0,0,1,12.38-2.62c.54.49,1.14.91,1.72,1.36a2.92,2.92,0,0,0,3.61.13,16.17,16.17,0,0,1,2.69-1c1.9-.68,4-1.06,5.67-2.11a72.44,72.44,0,0,0,6.68-5.24c.56-.45,1.11-.92,1.69-1.41l2,.94c1.51-1.69,3-3.27,4.41-5a4.51,4.51,0,0,0,.8-2.18c.26-2-1.11-3.5-2-5.12a5.41,5.41,0,0,0-5.82-3c-3.23.34-6.49.39-9.74.59a5.92,5.92,0,0,1-4.51-1.54c-.16-2.59-.53-5.19-.43-7.77.15-4.24.28-4.23-3.42-6.12a13.5,13.5,0,0,1-1.29-.69c-2.73-1.79-5.44-3.5-5.95-7.25a4.13,4.13,0,0,0-3.19-3.37,14.72,14.72,0,0,0-2.43-.09c-.39,0-.84,0-1.08-.25a.61.61,0,0,1-.16-.43,1.55,1.55,0,0,1,0-.34h0A3.35,3.35,0,0,1,98.51,74.27Z"/><path class="cls-5" d="M94.22,233.38c-2.06,0-3.81-.8-6.28-2.73L87.82,229l0-.59c-.06-.13-.11-.25-.16-.38s-.13-.33-.18-.49a7.8,7.8,0,0,1-.38-1.76,9.19,9.19,0,0,1,0-1.3,12.29,12.29,0,0,1,.13-1.29q0-.32.11-.64c.08-.43.18-.85.29-1.28.26-1.06.57-2.12.81-3.16-2.16-2.38-5-2.58-7.64-3.39-1.33,1.17-2.26,2.42-1.85,4.4a6.34,6.34,0,0,1-.48,2.36l-1.21-.14L75,221.11,74,221H68.83l-1.14-2.18c-3,1.93-6.11,1.2-9,.33s-5.91-2.38-6.72-5.86a4.08,4.08,0,0,0-4.89.22c-.89.62-1.84,1.33-2.86.44-1.26-1.11-2.37-.79-3.5.09-1,.74-1.85,1.56-2.81,2.3s-2.15,1.54-3.22,2.31l-.29-.32L33.69,220c-1.7.61-3.34.83-4.46,1.71s-1.94,2.52-2.89,3.85l-2.27-1-.52,3.3a3.57,3.57,0,0,1-3.45.7c-1.29-.26-2.61-.33-3.92-.48-1.47,0-2.78-1.2-4.66-.05l1.9,2.32c-1.59,1.2-1.76,1.53-1.89,3.67l2.18,1.08-1.85,1.73.24,3.61a5.12,5.12,0,0,1,.13,6l-1.74.28-1,2.31c3,4.57,6.39,6.28,9.92,5.29a70.11,70.11,0,0,1,4.49-5.71A38.93,38.93,0,0,1,36.82,240a3.56,3.56,0,0,1,2.35-.19,13.28,13.28,0,0,0,6.51.19c1.9-.28,3.44.72,4.65,2.26,1.81,2.33,2,5.84,5.54,7.08-.34,1.22-.56,2.31-.94,3.34-.65,1.79-1.12,3.54-.35,5.43a2.44,2.44,0,0,1,.11,1.4,4.14,4.14,0,0,0,1.11,3.58c1.13,1.48,2.16,1.67,3.78.69.76-.46,1.47-1,2.19-1.49,1.94.48,3.76,1.45,5.77.46v-8.06l1.77-1.06,3.46,1.89c3.06-2.28,3.06-2.28,6.3-2.84,1.37-1.41,2.35-3.21,4.42-4A16.4,16.4,0,0,0,87.18,246c2.19-1.71,4.11-3.63,4.91-6.42a.87.87,0,0,1,.27-.37c.12-.11.26-.22.37-.34.79-.61,1.56-1.27,2.39-1.83s1.53-.81,2.23-1.32c1-.71,1.86-1.52,2.79-2.29l-.42-.58v0C97.89,233,96.06,233.33,94.22,233.38Zm-40.45-.05c-.5,1.75-1,1.94-4.31,1.46l-2.18,2.95-2.09-1.6a9.41,9.41,0,0,0-2.08-1.5,3.25,3.25,0,0,1-2.28-2.56c-.17-.84-.45-1.66-.74-2.73l7.1-2.89,2,2.67.84-2.1c1.25,1.16,2.2,1.64,2,2.9C53.85,230.75,54.28,231.57,53.78,233.32Z"/><path class="cls-5" d="M45.4,153.1c.11.54-.49,1.31-.92,1.86-1,1.32-2.11,2.56-3,3.68a37.38,37.38,0,0,0-4.27,4A25.93,25.93,0,0,0,34.84,167q-1.87,3.62-3.76,7.23l-6.82,13c3.16,1.29,6.38.42,9.57.26,3.54-1.66,6.87-1.21,10.18.76a12.32,12.32,0,0,0,3.66,1.1c3.09.68,6.22,1.17,9.28,2,1.11.29,2,1.26,3.23,2,2.48-.56,5.12-.7,7.49.95l5.73-3.14c-1.15-.71-2.13-1.35-3.14-1.92-2-1.13-3.61-2.66-3.71-5.07a9.75,9.75,0,0,1,.73-4.2c1-2.23,1.93-4.33.4-6.61l2.4-4.52-1.87-3.41,4.56-1.3.11-.42L67.77,162c-.18-.75-.36-1.61-.6-2.45-.45-1.55-.89-3.11-1.44-4.62A2.76,2.76,0,0,0,62.27,153c-2.83.95-5.73-1.34-6.85-3.78-.61-1.32-1.07-2.72-1.72-4s-1.07-2.58-2.8-2.9L48,145.13C46.38,147.55,44.75,149.92,45.4,153.1Z"/><path class="cls-6" d="M65.73,154.92c.55,1.51,1,3.07,1.44,4.62.24.84.42,1.7.6,2.45l5.11,1.8-.11.42-4.56,1.3,1.87,3.41-2.4,4.52c1.54,2.28.59,4.38-.4,6.61a9.75,9.75,0,0,0-.73,4.2c.09,2.41,1.68,3.94,3.71,5.07,1,.57,2,1.21,3.14,1.92l-5.73,3.14c-2.37-1.65-5-1.5-7.49-.95-1.2-.79-2.13-1.75-3.23-2-3.05-.8-6.19-1.3-9.28-2A12.32,12.32,0,0,1,44,188.3c-3.31-2-6.64-2.42-10.18-.76l.07.71h.19a2.46,2.46,0,0,0,.37,0l.17,0c3.21-1.42,6.13-.73,9,1a13.51,13.51,0,0,0,3.89,1.16c3,.67,6,1.25,9.06,1.92a2.85,2.85,0,0,1,1.44.83c1.12,1.28,2.49,1.31,4,1.08,3.76-.57,6.25.89,7.89,4.67L68,201.05c1.31,3.67.51,7.52-.38,11.39a9.41,9.41,0,0,0,.13,2.38l2.44-1,1.45,1.83c2.4.07,4.14-1.33,6-2.51l1.89,1c-1.23,2-2.41,3.9-1.46,6.21h-4.6L74,221l1,.12,2.16.26,1.21.14a6.34,6.34,0,0,0,.48-2.36c-.4-2,.52-3.22,1.85-4.4,2.65.81,5.48,1,7.64,3.39-.23,1-.54,2.1-.81,3.16-.11.42-.2.85-.29,1.28q-.06.32-.11.64a12.29,12.29,0,0,0-.13,1.29,9.19,9.19,0,0,0,0,1.3,7.8,7.8,0,0,0,.38,1.76c.05.16.12.33.18.49s.1.25.16.38l.73,0c-1.36-3.59.14-7,.8-10.74a14.72,14.72,0,0,0-2.7-1.92c-3-1.24-6-2.31-9-3.44L72.29,215l-1.59-2.3-2.35.48a17.19,17.19,0,0,1,.69-3.34c.94-2.14.7-4.29.36-6.47l-.32-2.07,2.1-2.54-2.49-4,6.64-3.31c-1.73-1.1-3.23-2.15-4.81-3a5.47,5.47,0,0,1-3.19-4.84,9.7,9.7,0,0,1,1.11-3.92c.9-1.92,1.47-3.77.47-5.81a1,1,0,0,1,0-.52l2.26-4.57-1.73-2.85a31,31,0,0,1,5.5-.9c2,0,4,.72,6,.88a3.88,3.88,0,0,0,2.62-.75,16.48,16.48,0,0,0,4.29-5.26,8.74,8.74,0,0,1,2.32-2.33,8.88,8.88,0,0,1,1.43-.85c-.5-2.1-.42-4,1.13-5.69l2.33.73c1,1.21.55,2.86,2.35,3.23l2.13-2.52a15.56,15.56,0,0,0,4.38-1.29,4.25,4.25,0,0,1,1.32-.53,5.42,5.42,0,0,0,4.81-3.16,3.35,3.35,0,0,1,3.46-1.82c1.47.2,2.45-.52,3.56-1.22,2.12-1.33,4.32-2.53,6.49-3.78l-.06-.69a13.36,13.36,0,0,0-2.73.87,45.4,45.4,0,0,0-4.24,2.85,4.29,4.29,0,0,1-3.12,1.05,4,4,0,0,0-3.93,2c-1.16,1.85-2.49,3.16-4.84,3a1.44,1.44,0,0,0-.86.41,5.45,5.45,0,0,1-4.65,1.32L96.92,154c-.46-3.11-2.37-3.76-4.71-3.72-1.8,2.26-2.07,3.2-1.83,5.66-1.23,1.26-2.34,2.27-3.3,3.41-1.24,1.48-2.35,3.07-3.53,4.61a3.19,3.19,0,0,1-3,1.1c-4.4-.19-8.12-2.34-12.14-3.88a11.58,11.58,0,0,0-.31-1.9,46.41,46.41,0,0,0-2-5.43,2.79,2.79,0,0,0-3.86-1.52l.06.71A2.76,2.76,0,0,1,65.73,154.92Z"/><path class="cls-10" d="M108.06,69.43a1.09,1.09,0,0,0,.21-.22c.24-1.86,1.4-2.47,2.8-1.43.63.47,1.17,1.07,1.93,1.78.53-2.1-.21-3.69-.84-5.31a16.19,16.19,0,0,1-.47-1.69l-1-.48h0l-5.74-2-1.36-1.48h-2.41c0,.82,0,1.55,0,2.28,0,1.16.72,2.42-.49,3.4-.59,2.78-.75,5.75-3.4,7.49l.18,1.08h0l.47.47,1.75.48h0l3.36.17.46-2.28,3.25-1.81C107.06,69.33,107.37,68.92,108.06,69.43Z"/><path class="cls-10" d="M97.49,72.85l0,0h0Z"/><path class="cls-5" d="M61.28,275.78c.91-1.47,2-2.85,3-4.27h0l0,0h0l1-.48c.12-.39.13-.9.38-1.14,1.64-1.57,1.77-3.51,1.67-5.55l-5.45-.87c-1.48.71-2.76,2.24-5.08,1.76-1.66-1.45-3.47-3.05-2.91-5.94a2.05,2.05,0,0,0-.16-1.17c-.86-1.88-.25-3.65.29-5.44l.88-2.94c-2.34-.79-3.06-2.69-3.84-4.59a24.67,24.67,0,0,0-1.41-2.27,3.54,3.54,0,0,0-4.26-1.9,10.54,10.54,0,0,1-6-.2,2.9,2.9,0,0,0-2.13,0,76.19,76.19,0,0,0-8.63,5c-2.69,1.92-5.36,4-7,7.06s-3,3.46-6.18,2.18c-2-.81-4-1.69-5.94-2.51-2,1.37.18,3.11-.8,4.41l-3.07,5.94c1.2.61,2.65-.37,3.61,1.32l-3.71.8-.37,5.91-1.24.62C2.73,274.27,6,275.57,5.52,278l-2.21.14a8.06,8.06,0,0,0-.53,5.6l3.37-1.41c-.38,3-3.47,2.31-4.49,3.77C3.18,287.09,4.58,288,6,289c.72.5,1.43,1,2.11,1.61,2.29,1.9,4.69,3.74,5.66,6.74.64,2,1.18,4,1.68,5.67,1.63.39,3.09.77,4.56,1.06s2.86.53,4.3.68c2.09.22,4.2.39,6.3.46a12.3,12.3,0,0,0,4.07-.25c2.19-.7,4.27-1.78,7-3,.78-6.89,6-11.32,11.79-15.29a58.31,58.31,0,0,0,4.26-4.84C59.07,279.93,60,277.77,61.28,275.78Z"/><path class="cls-5" d="M64.22,271.51h0v0Z"/><path class="cls-5" d="M65.21,271l0,0h0Z"/><path class="cls-5" d="M65.23,271h0Z"/><polygon class="cls-5" points="65.23 271.01 65.23 271.01 65.23 271.01 65.23 271.01"/><polygon class="cls-5" points="65.23 271.01 65.23 271.01 65.23 271.01 65.23 271.01"/><path class="cls-5" d="M79.59,214.1l-1.89-1c-1.89,1.18-3.63,2.58-6,2.51l-1.45-1.83-2.44,1a9.41,9.41,0,0,1-.13-2.38c.89-3.87,1.69-7.72.38-11.39l1.92-2.24c-1.64-3.78-4.13-5.25-7.89-4.67-1.52.23-2.89.2-4-1.08a2.85,2.85,0,0,0-1.44-.83c-3-.67-6-1.25-9.06-1.92a13.51,13.51,0,0,1-3.89-1.16c-2.92-1.71-5.84-2.39-9-1l-.17,0a2.46,2.46,0,0,1-.37,0H33.9l-.64.1-1.93.3-.64.08c-.43.05-.86.1-1.28.13a11.55,11.55,0,0,1-5.75-.88.22.22,0,0,0-.13,0,5.42,5.42,0,0,0-.51.22c-1.59,2-3.2,4-4.77,6a2.8,2.8,0,0,0-.53,1.08c-.42,1.93-.8,3.88-1.2,5.82l-.1,1-.07.75,1.83,3.28-3.86-1.64c-1.74,2-2.39,4.55-3.19,7-.49,1.51-1.36,3-.77,4.67L11,223l1.65.27-.74,2.4,4.32,1.86.09-.45,6,.56c1-1.73-.18-3.61,1.32-5l2.36,1.74c1-1.29,1.63-2.7,2.73-3.56s2.6-1.11,4.26-1.75a6.09,6.09,0,0,1,.31-.7c.19-.35.42-.67.6-.95,2-.4,2-.4,4-2.5,2.67-2.78,4.32-3.13,7.58-1.49,2.16-1.72,4.54-2.76,7.31-.71.05,1.93,1.47,3.1,2.9,4.15a6.93,6.93,0,0,0,3.08,1.37c2.49.31,5,1.6,7.55.06.66-.39,1.69-.17,2.55-.23l.3,1.59,3.26.46,1,.14h4.6C77.18,218,78.37,216.06,79.59,214.1Z"/><path class="cls-5" d="M96.13,390.49h-.67l-.66,0a3.37,3.37,0,0,1-2.41-1,7.89,7.89,0,0,0-3.71-2.13c-2.28-.7-3.84-2.07-3.73-4.71-.07-.48-.17-1-.2-1.44-.22-3.23-.7-6.11-4.08-7.95-2.5-1.36-2.26-4.69,0-6.61.73-.61,1.56-1.11,2.59-1.84a28.79,28.79,0,0,0-1.9-2.94,5.42,5.42,0,0,1-1.51-4.45,9,9,0,0,0-1.21-5.86,7.16,7.16,0,0,1-.71-2.31c-.71-4.18.71-7.86,2.89-11.28,1.09-1.71,2.39-3.26,2.89-5.31a2.91,2.91,0,0,1,2.92-2.45c3.15-.2,5.89-1.67,8.6-3.15a2.51,2.51,0,0,0,1.44-3,6.18,6.18,0,0,1,.33-3.27c.74-1.85.62-3-1-4.19-.78-.57-1.66-1-2.49-1.51l-1-3.57c-2.24-1-4.06-1.07-6,.37-1.67,1.27-3.55.85-5.23-.28-.54-.36-1-.86-1.53-1.21-1.81-1.19-3.68-2.07-5.9-1-2.45,1.15-4.62,1-6.66-1.08-1.19-1.23-2.12-1-3.31.34a31.2,31.2,0,0,0-2.63,3.22c-1.83,2.73-4.52,2.84-7.35,2.53-1.27-.14-2.52-.45-4-.72-.88,2.81-1.84,5.49-2.54,8.23a10.23,10.23,0,0,0-.24,4.33,11.13,11.13,0,0,1-.44,5.73c-1.34,4.19-1.86,8.41,0,12.64a3.27,3.27,0,0,1,0,2.31c-.88,2.18-1.94,4.28-2.93,6.42l-.23,3.67a6.53,6.53,0,0,1,2.62,5.12l1.06,0c2.74-.21,3.08.07,4,2.88.15.46.76.77,1.16,1.14,2.52,1.46,5,2.95,7.58,4.37A8.44,8.44,0,0,1,64,374.88a11.29,11.29,0,0,0,1.7,2.21A25.8,25.8,0,0,1,69,381.79a24.39,24.39,0,0,1,1.18,5.14,55.31,55.31,0,0,1,3.27,5,19.07,19.07,0,0,1,.74,3.3c.89,3.1,1.87,6.18,2.77,9.28.31,1.07.5,2.18.73,3.19l-1.53,1.37c1,2.84-1,4.77-1.91,7.62A18.21,18.21,0,0,0,76,420a5.83,5.83,0,0,1,1.32,5c-.15.86-.27,1.73-.4,2.53l2.32,2.12a19.54,19.54,0,0,1,1.16-3.25,14.23,14.23,0,0,1,1.88-2.19c1.65.8,3,1.53,4.41,2.11,1.72.71,3.51,1.23,4.61,2.93.18.28.71.34,1.08.5l.53-.47a10.09,10.09,0,0,1-.78-8.79c3.61-.33,3.94-3.87,5.85-5.92-1.15-2.77-1.42-5.43-.27-7.72-.47-1.5-1.36-2.82-1.05-3.73a13,13,0,0,0,.6-4.63c-.07-2.64.12-5.29.19-7.94a8.52,8.52,0,0,0-1-.05Z"/><path class="cls-5" d="M155.82,91.48h-2.54l-.5-.49-1.43-1c-1.09-1.33-.24-2.61.1-3.9l-1-2.45c-.07-1,0-2.08-1.22-2.56l-.44-.77a11.55,11.55,0,0,0-1.14-1.45,13.63,13.63,0,0,0-1.6-1.13l-.65-.94c.34-3,.19-5.86-2.28-8.06l-2.41-1.52h0a12.11,12.11,0,0,0-6.19-2.27c-.82.07-1.8.4-1.7-1l-2.4-2.57-.84,1-.25-1.58-2-2.31,1.06-3.29-.91-1.29-3.08,1.56-1.81-2.52c-2.45-.25-4.92.2-6.81-1.8l1.1-2.62c-.8-1.52-2.14-1.55-3.44-1.6s-2.76,0-4.14,0c-.62.48-1.5.85-1.77,1.49s0,1.55.11,2.35c-3.71,1.22-2.88,4.49-3.34,7.21l1.54,1.91c1,.11,1.86.14,2.73.32,1.1.23,2.12.64,2.22,2l1,.48h0l0,0h0a7.34,7.34,0,0,1,1.67,8.29L110,68.13l-1.69,1.08a1.09,1.09,0,0,1-.21.22l-1.24.49c.27,1.93-1.57,1.78-2.9,2.62.42.81.62,1.76,1.2,2.2a8.26,8.26,0,0,1,2.71,4.47,6,6,0,0,0,1.66,2.84,60.15,60.15,0,0,0,6.29,4.12c2.38,1.41,2.71,2.27,2.57,4.95-.15,2.88.08,5.79.15,8.89a15.67,15.67,0,0,0,3.2.68c2.76,0,5.52-.25,8.28-.32a6.83,6.83,0,0,1,1.71.27l.57.12h0l1-.39h0c1.48-.42,2.61.26,3.69,1.14l1.11,1.25,2.51,4.32.16,3,3.72-1c.71-.3,1.78-.39,2.07-.92a25.44,25.44,0,0,1,5.76-6.81h0l1.06-1.55c-.34,0,.16-.1,0,0,.16-.1-.34,0,0,0,1.44-.77.82-2.22,1.11-3.37l.2-1.06.82-1.9h0l.14-.9Z"/><path class="cls-8" d="M87.95,230.65c2.46,1.93,4.21,2.77,6.28,2.73,1.83,0,3.66-.34,5.49-.52-.48-.22-1.19-.75-1.39-.6-1.34,1-2.72.11-4,.13-3.27.05-5.13-1.4-5.78-4l-.73,0,0,.59Z"/><path class="cls-2" d="M57.72,283.34c2.3-3.59,4.39-7.32,6.54-11,.12-.21,0-.55,0-.83h0c-1,1.42-2,2.8-3,4.27-1.23,2-2.21,4.15-3.56,6a58.31,58.31,0,0,1-4.26,4.84l0,0s0,0,0,0c.34,0,.78.05,1-.13A17.66,17.66,0,0,0,57.72,283.34Z"/><path class="cls-2" d="M53.45,286.68h0s0,0,0,0Z"/><path class="cls-2" d="M53.46,286.67h0l0,0Z"/><path class="cls-2" d="M64.23,271.51h0Z"/><path class="cls-12" d="M98,73.34c.18.33.35.93.53.94a3.35,3.35,0,0,0,1.21-.46L98,73.34l0,0Z"/><path class="cls-12" d="M98,73.36l0,0h0Z"/><path class="cls-6" d="M52,229.92h0c.49,1.41,2,2.79.06,4.35l-2.93-.59-1.84,2.61c-1.78-1.12-3.21-1.94-4.55-2.9a3.83,3.83,0,0,1-1-1.57,18,18,0,0,1-.61-2l5.92-2.33,1.3,2.63,2.35-1,1.28.84h0c.24-1.27-.71-1.74-2-2.9l-.84,2.1-2-2.67-7.1,2.89c.29,1.07.57,1.89.74,2.73a3.25,3.25,0,0,0,2.28,2.56,9.41,9.41,0,0,1,2.08,1.5l2.09,1.6,2.18-2.95c3.28.48,3.81.29,4.31-1.46S53.85,230.75,52,229.92Z"/><path class="cls-6" d="M52,229.93h0Z"/><path class="cls-2" d="M113,69.57c-.77-.72-1.31-1.31-1.93-1.78-1.4-1-2.56-.43-2.8,1.43L110,68.13l3.43,2.73a7.34,7.34,0,0,0-1.67-8.29h0a16.19,16.19,0,0,0,.47,1.69C112.79,65.88,113.53,67.47,113,69.57Z"/><path class="cls-2" d="M106.8,69.9h0v0l1.24-.49C107.37,68.92,107.06,69.33,106.8,69.9Z"/><path class="cls-2" d="M106.79,69.94h0v0Z"/><path class="cls-2" d="M106.8,69.9v0l0,0Z"/><path class="cls-4" d="M48.38,230.13l-1.3-2.63-5.92,2.33a18,18,0,0,0,.61,2,3.83,3.83,0,0,0,1,1.57c1.33,1,2.77,1.79,4.55,2.9l1.84-2.61,2.93.59c1.9-1.56.44-2.94-.06-4.35l-1.28-.84Z"/><path class="cls-4" d="M52,229.92h0l0,0Z"/><path class="cls-5" d="M139.56,123.95h0Z"/><path class="cls-5" d="M139.22,124l0,0Z"/><path class="cls-5" d="M138.67,124.51h0l0,0Z"/></g></g></svg>