<svg xmlns="http://www.w3.org/2000/svg" viewBox="0 0 55.75 68.59"><defs><style>.cls-1{fill:#fbfbfa;stroke:#231815;stroke-miterlimit:10;stroke-width:0.5px;}</style></defs><title>資產 8</title><g id="圖層_2" data-name="圖層 2"><g id="店家情報_拷貝" data-name="店家情報 拷貝"><path class="cls-1" d="M21.8,5c-1.77.78-3.64,1.35-5.46,2a13.17,13.17,0,0,0-2.06.68A63.6,63.6,0,0,0,7.4,11.74,7.11,7.11,0,0,0,4.16,17.2a10.22,10.22,0,0,1-1.6,4A16.48,16.48,0,0,1,.61,23.56c1.7-.26,3.36.41,5.12.11,1.45-.24,2.78.71,3.54,2.31l-1,2.32c1.64,1.06,1.64,1.06,5.9,1.2l1.79,2.39,2.73-1.5,2,2.22L19.6,35.83c3.09,2.59,5.61,5.75,9.84,6.76a17.29,17.29,0,0,1,5.52,3C37,47,37.64,49.35,37.81,51.77c.06.8,0,1.61,0,2.48l1.64.77,1.12,2.52a3.43,3.43,0,0,1,2.08,2.8A4.83,4.83,0,0,0,43,61.49c.9,2.17.91,2.17,0,4.59l1.19,1.84,2.72.4,1.93-2.71L50.13,67l2.45.15,2.89-3.94-1-2.52a11.71,11.71,0,0,0,.9-2.81,5.12,5.12,0,0,0-1.45-4.46,14,14,0,0,1-1.51-1.88c-2.29-2.39-2.56-4.42-.92-7.1a3.07,3.07,0,0,0-.35-4c-.66-.71-1.46-1.31-2-2.08a3.64,3.64,0,0,0-3-1.34,27.56,27.56,0,0,1-4.66-.78,3.72,3.72,0,0,1-1.22-3.14c0-.22,0-.45,0-.67a4.12,4.12,0,0,0-.27-1.27l-2.55-1.82a9.11,9.11,0,0,1,.46-3.77c.44-1.29.26-2.91.9-4.28a9,9,0,0,1,.91-1.3,9.36,9.36,0,0,1,2.14-.85c4.12-.55,6.33-3.74,5.47-7.77A4,4,0,0,0,45,8.75C42.67,7.33,40.27,6,37.95,4.53a21.77,21.77,0,0,1-2.87-2.24,3.69,3.69,0,0,1-.6-1.21L33.41.26,30,.59c-.66.42-1.29.89-2,1.25C26,2.91,23.93,4,21.8,5Z"/></g></g></svg>